{"glyphs":{"0":{"ha":918,"x_min":28,"x_max":890,"o":"m 460 951 q 772 818 654 951 q 890 465 890 683 q 772 114 890 246 q 460 -21 654 -21 q 147 113 267 -21 q 28 465 28 247 q 147 818 28 683 q 460 951 265 951 m 460 235 q 550 294 517 235 q 582 465 582 354 q 550 636 582 576 q 460 694 517 694 q 369 636 403 694 q 336 465 336 578 q 369 294 336 353 q 460 235 400 235 z "},"1":{"ha":593,"x_min":14,"x_max":524,"o":"m 524 931 l 524 0 l 222 0 l 222 579 l 14 474 l 14 757 l 324 931 l 524 931 z "},"2":{"ha":831,"x_min":21,"x_max":789,"o":"m 789 0 l 26 0 l 31 8 l 31 204 l 368 489 q 451 569 428 540 q 476 632 476 601 q 458 683 476 665 q 407 703 439 703 q 314 592 322 703 l 21 643 q 132 869 29 788 q 399 951 235 951 q 668 867 567 951 q 771 629 771 781 q 729 482 771 540 q 592 344 686 424 l 488 258 l 789 258 l 789 0 z "},"3":{"ha":819,"x_min":18,"x_max":792,"o":"m 682 478 q 792 286 792 410 q 683 68 792 156 q 410 -21 576 -21 q 150 58 257 -21 q 18 275 40 136 l 315 326 q 351 249 326 275 q 414 221 379 221 q 478 242 454 221 q 501 294 501 261 q 474 347 501 328 q 400 367 446 367 l 294 367 l 294 575 l 394 575 q 468 594 440 575 q 496 643 496 614 q 472 697 496 676 q 408 717 449 717 q 313 601 325 717 l 26 654 q 154 875 51 797 q 406 951 256 951 q 672 867 567 951 q 776 653 776 782 q 682 478 776 543 z "},"4":{"ha":897,"x_min":21,"x_max":869,"o":"m 869 136 l 763 136 l 763 0 l 482 0 l 482 136 l 21 136 l 21 408 l 413 932 l 763 932 l 763 382 l 869 382 l 869 136 m 482 382 l 482 632 l 304 382 l 482 382 z "},"5":{"ha":815,"x_min":26,"x_max":788,"o":"m 440 610 q 700 529 614 610 q 788 308 788 449 q 686 69 788 158 q 415 -21 583 -21 q 149 63 257 -21 q 26 294 39 146 l 314 349 q 347 254 317 283 q 418 225 379 225 q 481 247 458 225 q 504 306 504 271 q 478 363 504 340 q 406 383 451 383 l 68 383 l 90 932 l 751 932 l 751 676 l 340 676 l 336 610 l 440 610 z "},"6":{"ha":847,"x_min":28,"x_max":819,"o":"m 497 606 q 731 521 642 606 q 819 297 819 436 q 715 68 819 158 q 449 -21 610 -21 q 142 101 254 -21 q 28 444 28 224 q 165 838 28 700 q 451 951 279 951 q 683 889 590 951 q 806 710 776 825 l 521 653 q 440 711 507 711 q 360 671 396 711 q 314 536 317 624 q 497 606 388 606 m 439 207 q 513 238 482 207 q 544 310 544 269 q 514 385 544 354 q 439 414 482 414 q 365 385 397 414 q 333 310 333 353 q 365 238 333 269 q 439 207 396 207 z "},"7":{"ha":740,"x_min":11,"x_max":713,"o":"m 713 932 l 713 706 l 438 0 l 117 0 l 383 674 l 11 674 l 11 932 l 713 932 z "},"8":{"ha":814,"x_min":14,"x_max":800,"o":"m 647 486 q 800 260 800 421 q 692 60 800 139 q 406 -21 582 -21 q 124 60 231 -21 q 14 261 14 139 q 165 486 14 422 q 49 681 49 549 q 151 874 49 794 q 407 951 254 951 q 663 874 560 951 q 765 681 765 794 q 647 486 765 549 m 407 736 q 342 714 368 736 q 314 654 314 690 q 342 594 314 618 q 407 571 369 571 q 474 594 446 571 q 500 654 500 617 q 474 714 500 692 q 407 736 447 736 m 407 206 q 475 231 446 206 q 503 292 503 254 q 475 354 503 331 q 407 378 447 378 q 339 354 367 378 q 311 292 311 331 q 340 231 311 254 q 407 206 368 206 z "},"9":{"ha":847,"x_min":28,"x_max":819,"o":"m 399 951 q 707 829 593 951 q 819 486 819 707 q 682 93 819 231 q 396 -21 568 -21 q 165 43 258 -21 q 42 221 71 106 l 326 278 q 407 219 342 219 q 488 260 451 219 q 533 394 531 307 q 350 325 460 325 q 117 410 206 325 q 28 633 28 494 q 133 863 28 774 q 399 951 236 951 m 408 517 q 483 547 453 517 q 514 621 514 576 q 482 693 514 661 q 408 724 451 724 q 335 693 365 724 q 303 621 303 661 q 335 547 303 576 q 408 517 365 517 z "}," ":{"ha":292,"x_min":0,"x_max":0,"o":""},"!":{"ha":438,"x_min":49,"x_max":390,"o":"m 389 931 l 389 888 l 361 346 l 76 346 l 49 888 l 49 931 l 389 931 m 228 300 q 344 254 297 300 q 390 146 390 208 q 344 36 390 81 q 228 -8 297 -8 q 113 36 157 -8 q 67 146 67 79 q 113 254 67 208 q 228 300 158 300 z "},"\"":{"ha":688,"x_min":56,"x_max":632,"o":"m 56 447 l 56 931 l 313 931 l 313 447 l 56 447 m 375 447 l 375 931 l 632 931 l 632 447 l 375 447 z "},"#":{"ha":1039,"x_min":28,"x_max":1011,"o":"m 829 526 l 796 390 l 928 390 l 872 185 l 744 185 l 699 0 l 471 0 l 517 185 l 388 185 l 342 0 l 114 0 l 160 185 l 28 185 l 83 390 l 211 390 l 244 526 l 113 526 l 167 732 l 296 732 l 344 931 l 572 931 l 524 732 l 653 732 l 701 931 l 929 931 l 881 732 l 1011 732 l 957 526 l 829 526 m 601 526 l 472 526 l 439 390 l 568 390 l 601 526 z "},"$":{"ha":857,"x_min":31,"x_max":829,"o":"m 829 308 q 753 117 829 188 q 560 22 675 44 l 560 -139 l 315 -139 l 315 25 q 128 126 204 54 q 31 290 49 199 l 310 343 q 443 236 346 236 q 499 249 476 236 q 521 279 521 258 q 482 324 521 311 l 301 371 q 117 465 178 401 q 56 626 56 529 q 126 814 56 742 q 315 910 197 888 l 315 1069 l 560 1069 l 560 907 q 738 817 668 882 q 821 653 807 750 l 554 607 q 432 706 526 706 q 364 656 364 706 q 397 615 364 624 l 569 571 q 765 475 701 536 q 829 308 829 415 z "},"%":{"ha":1289,"x_min":56,"x_max":1233,"o":"m 314 951 q 496 883 422 951 q 569 703 569 814 q 496 525 569 594 q 314 456 419 456 q 132 525 208 456 q 56 703 56 593 q 132 883 56 815 q 314 951 206 951 m 242 0 l 896 931 l 1044 931 l 390 0 l 242 0 m 314 790 q 254 767 281 790 q 229 703 229 744 q 256 642 229 664 q 314 617 281 617 q 371 642 346 617 q 396 703 396 665 q 371 767 396 744 q 314 790 344 790 m 978 475 q 1160 407 1086 475 q 1233 226 1233 338 q 1160 49 1233 118 q 978 -21 1083 -21 q 796 49 872 -21 q 719 226 719 117 q 796 407 719 339 q 978 475 869 475 m 978 314 q 918 290 944 314 q 893 226 893 268 q 919 165 893 188 q 978 140 944 140 q 1035 165 1010 140 q 1060 226 1060 189 q 1035 290 1060 268 q 978 314 1008 314 z "},"&":{"ha":964,"x_min":25,"x_max":958,"o":"m 679 56 q 390 -21 553 -21 q 204 13 288 -21 q 73 109 121 46 q 25 258 25 172 q 186 510 25 421 q 122 686 122 599 q 165 820 122 760 q 284 916 207 881 q 460 951 361 951 q 687 884 601 951 q 790 692 772 817 l 519 642 q 503 706 517 685 q 457 726 489 726 q 424 713 436 726 q 411 676 411 699 q 482 561 411 624 l 628 435 q 632 525 629 454 l 910 561 q 913 489 913 536 q 897 358 913 417 q 851 240 882 300 l 958 147 l 786 -36 l 679 56 m 349 344 q 322 288 322 318 q 347 233 322 256 q 415 210 371 210 q 485 225 450 210 l 349 344 z "},"'":{"ha":368,"x_min":56,"x_max":313,"o":"m 56 447 l 56 931 l 313 931 l 313 447 l 56 447 z "},"(":{"ha":565,"x_min":35,"x_max":531,"o":"m 343 468 q 357 344 343 399 q 404 238 371 289 q 460 156 433 190 q 531 72 483 126 l 321 -114 q 111 153 188 15 q 35 468 35 285 q 111 783 35 651 q 321 1049 188 919 l 519 861 q 400 699 428 749 q 343 468 343 592 z "},")":{"ha":565,"x_min":35,"x_max":531,"o":"m 244 1049 q 456 783 376 921 q 531 468 531 650 q 456 153 531 286 q 244 -114 376 14 l 35 72 q 107 156 94 140 q 163 238 124 176 q 208 344 194 290 q 222 468 222 399 q 196 625 222 554 q 142 740 168 700 q 61 843 103 793 l 46 861 l 244 1049 z "},"*":{"ha":621,"x_min":42,"x_max":579,"o":"m 456 746 l 579 675 l 507 550 l 388 618 l 388 490 l 233 490 l 233 619 l 114 551 l 42 675 l 165 746 l 42 815 l 114 940 l 233 872 l 233 1000 l 388 1000 l 388 872 l 507 940 l 579 817 l 456 746 z "},"+":{"ha":778,"x_min":42,"x_max":736,"o":"m 736 306 l 500 306 l 500 69 l 278 69 l 278 306 l 42 306 l 42 528 l 278 528 l 278 764 l 500 764 l 500 528 l 736 528 l 736 306 z "},",":{"ha":401,"x_min":-14,"x_max":381,"o":"m 215 -183 l -14 -183 l 65 272 l 381 272 l 381 265 l 215 -183 z "},"-":{"ha":636,"x_min":83,"x_max":553,"o":"m 553 264 l 83 264 l 83 508 l 553 508 l 553 264 z "},".":{"ha":365,"x_min":21,"x_max":344,"o":"m 182 315 q 299 268 251 315 q 344 153 344 221 q 299 38 344 83 q 182 -8 253 -8 q 67 38 111 -8 q 21 153 21 83 q 67 268 21 221 q 182 315 113 315 z "},"/":{"ha":650,"x_min":35,"x_max":615,"o":"m 615 1029 l 215 -100 l 35 -100 l 435 1029 l 615 1029 z "},":":{"ha":365,"x_min":21,"x_max":344,"o":"m 182 719 q 299 672 251 719 q 344 557 344 625 q 299 442 344 488 q 182 396 253 396 q 67 442 110 396 q 21 557 21 488 q 67 672 21 625 q 182 719 113 719 m 182 315 q 299 268 251 315 q 344 153 344 221 q 299 38 344 83 q 182 -8 253 -8 q 67 38 111 -8 q 21 153 21 83 q 67 268 21 221 q 182 315 113 315 z "},";":{"ha":417,"x_min":-14,"x_max":396,"o":"m 233 719 q 350 672 303 719 q 396 557 396 625 q 350 442 396 488 q 233 396 304 396 q 118 442 161 396 q 72 557 72 488 q 118 672 72 625 q 233 719 164 719 m 215 -183 l -14 -183 l 65 272 l 381 272 l 381 265 l 215 -183 z "},"<":{"ha":700,"x_min":42,"x_max":644,"o":"m 644 124 l 42 322 l 42 579 l 644 778 l 644 525 l 321 451 l 644 376 l 644 124 z "},"=":{"ha":778,"x_min":42,"x_max":736,"o":"m 736 456 l 42 456 l 42 664 l 736 664 l 736 456 m 736 181 l 42 181 l 42 389 l 736 389 l 736 181 z "},">":{"ha":700,"x_min":56,"x_max":658,"o":"m 379 451 l 56 525 l 56 778 l 658 579 l 658 322 l 56 124 l 56 376 l 379 451 z "},"?":{"ha":778,"x_min":28,"x_max":757,"o":"m 419 951 q 663 867 569 951 q 757 656 757 781 q 699 493 757 560 q 535 396 640 426 l 535 338 l 236 338 l 238 575 l 360 575 q 429 592 403 575 q 454 635 454 608 q 439 678 454 660 q 396 694 422 694 q 351 675 371 694 q 329 621 331 653 l 28 682 q 154 878 60 806 q 419 951 251 951 m 381 300 q 497 254 450 300 q 543 146 543 208 q 497 36 543 81 q 381 -8 450 -8 q 265 36 310 -8 q 219 146 219 81 q 265 254 219 208 q 381 300 311 300 z "},"@":{"ha":1279,"x_min":54,"x_max":1228,"o":"m 947 267 q 994 222 944 222 q 1069 297 1043 222 q 1096 454 1096 372 q 1042 653 1096 568 q 894 785 988 739 q 682 831 800 831 q 432 769 546 831 q 252 597 318 707 q 186 347 186 486 q 243 130 186 224 q 402 -15 300 36 q 635 -67 504 -67 q 806 -37 728 -67 q 965 53 883 -8 l 1025 -51 q 631 -187 857 -187 q 201 -32 358 -187 q 54 331 54 115 q 139 650 54 508 q 369 872 224 792 q 688 951 514 951 q 963 890 840 951 q 1157 718 1086 829 q 1228 461 1228 607 q 1147 198 1228 297 q 918 99 1065 99 q 742 186 783 99 q 558 101 678 101 q 381 173 447 101 q 315 360 315 244 q 350 516 315 449 q 447 620 385 583 q 589 657 510 657 q 740 600 686 657 l 743 642 l 967 642 l 947 267 m 644 296 q 705 322 681 296 q 729 388 729 349 q 708 444 729 422 q 653 467 688 467 q 592 441 617 467 q 567 376 567 415 q 588 319 567 342 q 644 296 610 296 z "},"A":{"ha":1075,"x_min":0,"x_max":1075,"o":"m 1075 0 l 747 0 l 710 113 l 367 113 l 328 0 l 0 0 l 361 931 l 714 931 l 1075 0 m 625 363 l 539 615 l 453 363 l 625 363 z "},"B":{"ha":928,"x_min":49,"x_max":900,"o":"m 631 475 q 835 423 771 475 q 900 265 900 371 q 858 123 900 183 q 743 31 817 63 q 578 0 669 0 l 49 0 l 49 931 l 578 931 q 790 865 707 931 q 872 686 872 799 q 810 537 872 593 q 631 481 749 481 l 631 475 m 485 556 q 549 576 525 556 q 572 628 572 596 q 548 681 572 663 q 485 700 524 700 l 356 700 l 356 556 l 485 556 m 499 231 q 563 253 540 231 q 586 313 586 276 q 561 365 586 346 q 499 383 536 383 l 356 383 l 356 231 l 499 231 z "},"C":{"ha":1065,"x_min":35,"x_max":1031,"o":"m 1031 342 q 872 78 1004 176 q 542 -21 740 -21 q 182 121 328 -21 q 35 465 35 260 q 182 811 35 669 q 542 951 329 951 q 863 854 724 951 q 1029 597 1000 757 l 721 528 q 542 679 690 679 q 401 618 458 679 q 343 465 343 556 q 401 314 343 375 q 542 251 457 251 q 722 414 685 251 l 1031 342 z "},"D":{"ha":1007,"x_min":49,"x_max":972,"o":"m 467 931 q 833 801 694 931 q 972 465 972 672 q 833 129 972 258 q 467 0 694 0 l 49 0 l 49 931 l 467 931 m 439 253 q 601 313 540 253 q 663 465 663 374 q 601 618 663 557 q 439 678 540 678 l 356 678 l 356 253 l 439 253 z "},"E":{"ha":844,"x_min":49,"x_max":821,"o":"m 821 251 l 807 0 l 49 0 l 49 931 l 800 931 l 800 679 l 356 679 l 356 576 l 790 576 l 790 354 l 356 354 l 356 251 l 821 251 z "},"F":{"ha":838,"x_min":49,"x_max":817,"o":"m 356 669 l 356 538 l 790 538 l 790 276 l 356 276 l 356 0 l 49 0 l 49 931 l 817 931 l 817 669 l 356 669 z "},"G":{"ha":1086,"x_min":35,"x_max":1051,"o":"m 1044 561 q 1051 465 1051 489 q 988 209 1051 319 q 809 39 924 99 q 549 -21 694 -21 q 288 44 406 -21 q 103 219 171 108 q 35 465 35 331 q 103 713 35 601 q 289 888 171 824 q 549 951 407 951 q 842 878 714 951 q 1017 674 969 806 l 694 601 q 549 679 654 679 q 401 619 458 679 q 343 465 343 558 q 401 313 343 374 q 549 251 458 251 q 711 319 656 251 l 565 319 l 565 561 l 1044 561 z "},"H":{"ha":999,"x_min":49,"x_max":950,"o":"m 950 931 l 950 0 l 643 0 l 643 340 l 356 340 l 356 0 l 49 0 l 49 931 l 356 931 l 356 599 l 643 599 l 643 931 l 950 931 z "},"I":{"ha":640,"x_min":28,"x_max":613,"o":"m 474 672 l 474 258 l 613 258 l 613 0 l 28 0 l 28 258 l 167 258 l 167 672 l 28 672 l 28 931 l 613 931 l 613 672 l 474 672 z "},"J":{"ha":878,"x_min":17,"x_max":822,"o":"m 822 346 q 771 151 822 233 q 628 24 719 68 q 418 -21 536 -21 q 215 28 307 -21 q 70 164 124 76 q 17 364 17 251 l 324 369 q 350 281 329 310 q 418 251 371 251 q 488 277 463 251 q 514 346 514 303 l 514 672 l 222 672 l 222 931 l 822 931 l 822 346 z "},"K":{"ha":1004,"x_min":49,"x_max":1018,"o":"m 1018 0 l 651 0 l 464 285 l 356 151 l 356 0 l 49 0 l 49 931 l 356 931 l 356 589 l 643 931 l 990 931 l 663 528 l 1018 0 z "},"L":{"ha":800,"x_min":49,"x_max":772,"o":"m 772 258 l 772 0 l 49 0 l 49 931 l 356 931 l 356 258 l 772 258 z "},"M":{"ha":1244,"x_min":49,"x_max":1196,"o":"m 1196 931 l 1196 0 l 896 0 l 896 374 l 724 0 l 521 0 l 349 374 l 349 0 l 49 0 l 49 931 l 390 931 l 622 489 l 854 931 l 1196 931 z "},"N":{"ha":1039,"x_min":49,"x_max":990,"o":"m 990 931 l 990 0 l 739 0 l 356 419 l 356 0 l 49 0 l 49 931 l 300 931 l 683 492 l 683 931 l 990 931 z "},"O":{"ha":1083,"x_min":35,"x_max":1049,"o":"m 542 951 q 903 811 754 951 q 1049 465 1049 669 q 903 121 1049 261 q 542 -21 756 -21 q 182 121 328 -21 q 35 465 35 260 q 182 811 35 669 q 542 951 329 951 m 542 251 q 685 313 628 251 q 740 465 740 372 q 685 618 740 558 q 542 679 628 679 q 399 618 456 679 q 343 465 343 558 q 399 313 343 372 q 542 251 456 251 z "},"P":{"ha":921,"x_min":49,"x_max":893,"o":"m 556 931 q 800 838 707 931 q 893 594 893 744 q 793 342 893 438 q 526 246 692 246 l 356 246 l 356 0 l 49 0 l 49 931 l 556 931 m 478 478 q 560 508 525 478 q 593 585 593 538 q 560 657 593 628 q 478 685 524 685 l 356 685 l 356 478 l 478 478 z "},"Q":{"ha":1083,"x_min":35,"x_max":1049,"o":"m 542 -21 q 284 38 400 -26 q 101 217 168 103 q 35 465 35 331 q 102 713 35 601 q 285 888 169 824 q 542 951 401 951 q 799 887 683 951 q 982 711 915 822 q 1049 465 1049 600 q 1001 258 1049 356 q 868 90 954 160 l 981 -60 l 771 -285 l 578 -19 l 542 -21 m 343 465 q 398 313 343 374 q 542 251 453 251 q 685 313 631 251 q 740 465 740 374 q 685 618 740 557 q 542 679 631 679 q 398 618 453 679 q 343 465 343 557 z "},"R":{"ha":956,"x_min":49,"x_max":956,"o":"m 589 0 l 360 275 l 356 275 l 356 0 l 49 0 l 49 931 l 569 931 q 814 842 721 931 q 906 608 906 753 q 851 419 906 501 q 700 303 797 338 l 956 0 l 589 0 m 494 507 q 576 532 546 507 q 606 599 606 557 q 576 661 606 639 q 494 685 544 685 l 356 685 l 356 507 l 494 507 z "},"S":{"ha":911,"x_min":24,"x_max":885,"o":"m 476 951 q 755 883 644 951 q 885 679 865 815 l 586 619 q 469 722 565 722 q 417 708 438 722 q 396 668 397 694 q 431 625 396 635 l 611 578 q 810 481 743 544 q 878 310 878 417 q 820 130 878 204 q 667 17 763 56 q 457 -21 571 -21 q 250 13 344 -21 q 95 114 156 47 q 24 272 35 181 l 336 329 q 465 219 361 219 q 549 275 549 219 q 508 315 549 304 l 319 365 q 133 457 197 394 q 68 625 68 519 q 123 805 68 732 q 270 915 178 878 q 476 951 363 951 z "},"T":{"ha":929,"x_min":28,"x_max":901,"o":"m 901 672 l 618 672 l 618 0 l 311 0 l 311 672 l 28 672 l 28 931 l 901 931 l 901 672 z "},"U":{"ha":996,"x_min":56,"x_max":940,"o":"m 940 424 q 821 99 940 218 q 504 -21 701 -21 q 178 99 301 -21 q 56 424 56 217 l 56 931 l 364 931 l 364 424 q 401 296 364 340 q 504 251 439 251 q 597 296 561 251 q 632 424 632 339 l 632 931 l 940 931 l 940 424 z "},"V":{"ha":1071,"x_min":0,"x_max":1071,"o":"m 1071 931 l 686 0 l 385 0 l 0 931 l 342 931 l 536 436 l 729 931 l 1071 931 z "},"W":{"ha":1383,"x_min":0,"x_max":1383,"o":"m 1383 931 l 1129 0 l 799 0 l 692 469 l 585 0 l 254 0 l 0 931 l 311 931 l 442 456 l 547 931 l 836 931 l 942 456 l 1072 931 l 1383 931 z "},"X":{"ha":1007,"x_min":0,"x_max":1007,"o":"m 656 0 l 503 264 l 351 0 l 0 0 l 272 465 l 11 931 l 363 931 l 503 674 l 644 931 l 996 931 l 735 465 l 1007 0 l 656 0 z "},"Y":{"ha":1022,"x_min":0,"x_max":1022,"o":"m 1022 931 l 665 279 l 665 0 l 343 0 l 343 279 l 0 931 l 335 931 l 513 583 l 688 931 l 1022 931 z "},"Z":{"ha":908,"x_min":42,"x_max":869,"o":"m 869 257 l 869 0 l 42 0 l 42 199 l 454 674 l 53 674 l 53 931 l 853 931 l 853 692 l 488 257 l 869 257 z "},"[":{"ha":583,"x_min":49,"x_max":542,"o":"m 314 797 l 314 117 l 542 117 l 542 -114 l 49 -114 l 49 1029 l 542 1029 l 542 797 l 314 797 z "},"\\":{"ha":650,"x_min":35,"x_max":615,"o":"m 615 -100 l 435 -100 l 35 1029 l 215 1029 l 615 -100 z "},"]":{"ha":583,"x_min":42,"x_max":535,"o":"m 535 1029 l 535 -114 l 42 -114 l 42 117 l 269 117 l 269 797 l 42 797 l 42 1029 l 535 1029 z "},"^":{"ha":700,"x_min":14,"x_max":686,"o":"m 264 557 l 14 557 l 236 931 l 464 931 l 686 557 l 436 557 l 350 714 l 264 557 z "},"_":{"ha":750,"x_min":28,"x_max":722,"o":"m 722 -271 l 28 -271 l 28 -78 l 722 -78 l 722 -271 z "},"`":{"ha":833,"x_min":143,"x_max":615,"o":"m 504 1021 l 615 788 l 333 788 l 143 1021 l 504 1021 z "},"a":{"ha":799,"x_min":14,"x_max":757,"o":"m 408 726 q 665 648 574 726 q 757 421 757 569 l 757 0 l 494 0 l 467 44 q 265 -21 386 -21 q 83 42 153 -21 q 14 210 14 104 q 102 383 14 326 q 335 439 190 439 l 467 439 l 467 460 q 450 503 467 488 q 408 518 433 518 q 346 460 357 518 l 65 518 q 408 726 126 726 m 392 186 q 446 206 425 186 q 467 263 467 226 l 467 292 l 413 292 q 357 276 378 292 q 336 236 336 261 q 353 199 336 211 q 392 186 369 186 z "},"b":{"ha":900,"x_min":49,"x_max":879,"o":"m 540 726 q 719 678 643 726 q 838 546 796 631 q 879 353 879 461 q 838 158 879 243 q 719 26 796 74 q 540 -21 642 -21 q 347 58 422 -21 l 319 0 l 49 0 l 49 1069 l 347 1069 l 347 647 q 540 726 422 726 m 464 225 q 548 263 517 225 q 579 353 579 300 q 547 444 579 407 q 464 481 515 481 q 379 443 411 481 q 347 353 347 406 q 380 262 347 299 q 464 225 413 225 z "},"c":{"ha":814,"x_min":21,"x_max":793,"o":"m 793 276 q 669 61 774 142 q 419 -21 563 -21 q 138 85 251 -21 q 21 353 21 189 q 138 622 21 517 q 419 726 253 726 q 669 646 564 726 q 792 433 772 565 l 521 383 q 486 456 515 426 q 419 481 460 481 q 339 443 371 481 q 307 353 307 404 q 339 263 307 301 q 419 225 371 225 q 486 251 460 225 q 521 324 515 281 l 793 276 z "},"d":{"ha":900,"x_min":21,"x_max":851,"o":"m 851 0 l 581 0 l 553 58 q 360 -21 478 -21 q 181 27 257 -21 q 63 160 104 75 q 21 353 21 244 q 63 547 21 463 q 181 679 104 632 q 360 726 258 726 q 553 647 478 726 l 553 1069 l 851 1069 l 851 0 m 436 225 q 521 263 489 225 q 553 353 553 300 q 520 444 553 407 q 436 481 488 481 q 352 443 383 481 q 321 353 321 406 q 353 262 321 299 q 436 225 385 225 z "},"e":{"ha":808,"x_min":21,"x_max":788,"o":"m 311 282 q 415 200 336 200 q 478 215 450 200 q 515 257 506 231 l 781 206 q 644 36 739 93 q 415 -21 547 -21 q 136 85 250 -21 q 21 353 21 189 q 136 622 21 515 q 414 726 251 726 q 686 624 583 726 q 788 325 788 521 l 788 282 l 311 282 m 414 503 q 313 432 340 503 l 504 432 q 469 485 493 467 q 414 503 446 503 z "},"f":{"ha":546,"x_min":7,"x_max":554,"o":"m 546 706 l 546 476 l 393 476 l 393 0 l 94 0 l 94 476 l 7 476 l 7 706 l 94 706 l 94 804 q 176 1007 94 929 q 389 1083 257 1083 q 554 1051 471 1083 l 497 832 q 458 838 481 838 q 411 821 431 838 q 393 778 393 804 l 393 706 l 546 706 z "},"g":{"ha":900,"x_min":21,"x_max":851,"o":"m 851 -10 q 788 -193 851 -117 q 623 -310 724 -272 q 406 -347 522 -347 q 33 -147 149 -347 l 289 -60 q 342 -103 317 -90 q 403 -117 368 -117 q 510 -85 467 -117 q 553 4 553 -54 l 553 58 q 360 -21 478 -21 q 181 27 257 -21 q 63 160 104 75 q 21 353 21 244 q 63 547 21 463 q 181 679 104 632 q 360 726 258 726 q 553 647 478 726 l 581 706 l 851 706 l 851 -10 m 436 225 q 521 263 489 225 q 553 353 553 300 q 520 444 553 407 q 436 481 488 481 q 352 443 383 481 q 321 353 321 406 q 353 262 321 299 q 436 225 385 225 z "},"h":{"ha":864,"x_min":49,"x_max":811,"o":"m 556 726 q 742 650 674 726 q 811 440 811 572 l 811 0 l 513 0 l 513 376 q 492 439 513 417 q 433 463 468 463 q 371 433 394 463 q 347 357 347 403 l 347 0 l 49 0 l 49 1069 l 347 1069 l 347 629 q 556 726 432 726 z "},"i":{"ha":424,"x_min":49,"x_max":375,"o":"m 211 1068 q 329 1022 281 1068 q 375 910 375 975 q 329 797 375 842 q 211 751 282 751 q 94 797 140 751 q 49 910 49 842 q 94 1022 49 975 q 211 1068 140 1068 m 361 0 l 63 0 l 63 706 l 361 706 l 361 0 z "},"j":{"ha":439,"x_min":-42,"x_max":390,"o":"m 226 1068 q 344 1022 297 1068 q 390 910 390 975 q 344 797 390 842 q 226 751 297 751 q 110 797 156 751 q 64 910 64 842 q 110 1022 64 975 q 226 1068 156 1068 m -42 -108 q 35 -112 -12 -112 q 78 -56 78 -112 l 78 706 l 376 706 l 376 -79 q 306 -274 376 -201 q 115 -347 232 -347 q -42 -311 35 -347 l -42 -108 z "},"k":{"ha":876,"x_min":49,"x_max":890,"o":"m 890 0 l 529 0 l 425 174 l 347 79 l 347 0 l 49 0 l 49 1069 l 347 1069 l 347 503 l 517 706 l 868 706 l 631 421 l 890 0 z "},"l":{"ha":497,"x_min":46,"x_max":497,"o":"m 344 274 q 356 240 344 253 q 388 228 368 228 q 439 236 404 229 q 497 251 474 243 l 497 35 q 402 -8 442 4 q 307 -21 363 -21 q 117 53 188 -21 q 46 247 46 126 l 46 1069 l 344 1069 l 344 274 z "},"m":{"ha":1328,"x_min":49,"x_max":1275,"o":"m 1015 726 q 1205 647 1135 726 q 1275 440 1275 568 l 1275 0 l 976 0 l 976 376 q 954 439 976 415 q 899 463 932 463 q 835 432 858 463 q 811 357 811 401 l 811 0 l 513 0 l 513 376 q 491 439 513 415 q 432 463 469 463 q 370 432 393 463 q 347 357 347 401 l 347 0 l 49 0 l 49 706 l 319 706 l 347 628 q 551 726 421 726 q 778 600 710 726 q 1015 726 861 726 z "},"n":{"ha":864,"x_min":49,"x_max":811,"o":"m 554 726 q 743 649 675 726 q 811 440 811 571 l 811 0 l 513 0 l 513 376 q 492 439 513 415 q 435 463 471 463 q 370 433 393 463 q 347 357 347 403 l 347 0 l 49 0 l 49 706 l 319 706 l 347 629 q 554 726 432 726 z "},"o":{"ha":844,"x_min":21,"x_max":824,"o":"m 422 726 q 707 622 590 726 q 824 353 824 517 q 707 85 824 189 q 422 -21 592 -21 q 138 85 253 -21 q 21 353 21 189 q 138 622 21 517 q 422 726 254 726 m 422 225 q 506 263 472 225 q 538 353 538 301 q 506 443 538 404 q 422 481 472 481 q 340 443 372 481 q 307 353 307 406 q 340 263 307 300 q 422 225 372 225 z "},"p":{"ha":900,"x_min":49,"x_max":879,"o":"m 540 726 q 719 678 643 726 q 838 546 796 631 q 879 353 879 461 q 838 158 879 243 q 719 26 796 74 q 540 -21 642 -21 q 347 58 422 -21 l 347 -333 l 49 -333 l 49 706 l 319 706 l 347 647 q 540 726 422 726 m 464 225 q 548 263 517 225 q 579 353 579 300 q 547 444 579 407 q 464 481 515 481 q 379 443 411 481 q 347 353 347 406 q 380 262 347 299 q 464 225 413 225 z "},"q":{"ha":900,"x_min":21,"x_max":851,"o":"m 851 -333 l 553 -333 l 553 58 q 360 -21 478 -21 q 181 27 257 -21 q 63 160 104 75 q 21 353 21 244 q 63 547 21 463 q 181 679 104 632 q 360 726 258 726 q 553 647 478 726 l 581 706 l 851 706 l 851 -333 m 436 225 q 521 263 489 225 q 553 353 553 300 q 520 444 553 407 q 436 481 488 481 q 352 443 383 481 q 321 353 321 406 q 353 262 321 299 q 436 225 385 225 z "},"r":{"ha":628,"x_min":49,"x_max":624,"o":"m 572 714 q 624 710 597 714 l 614 396 l 572 396 q 401 352 454 396 q 347 207 347 308 l 347 0 l 49 0 l 49 706 l 319 706 l 347 560 q 572 714 417 714 z "},"s":{"ha":747,"x_min":15,"x_max":722,"o":"m 297 236 q 329 195 306 210 q 381 181 353 181 q 436 210 436 181 q 423 229 436 224 q 381 239 410 235 l 242 261 q 33 465 33 294 q 80 609 33 550 q 204 697 126 668 q 372 726 282 726 q 717 536 664 726 l 453 485 q 424 524 447 508 q 371 540 400 540 q 319 513 319 540 q 354 485 319 490 l 513 456 q 722 231 722 418 q 674 90 722 146 q 546 6 625 33 q 372 -21 467 -21 q 135 27 232 -21 q 15 181 39 75 l 297 236 z "},"t":{"ha":597,"x_min":7,"x_max":590,"o":"m 590 31 q 381 -21 496 -21 q 165 56 238 -21 q 92 261 92 132 l 92 476 l 7 476 l 7 706 l 92 706 l 133 931 l 390 931 l 390 706 l 556 706 l 556 476 l 390 476 l 390 299 q 408 247 390 261 q 465 232 428 232 q 536 237 494 232 q 590 249 578 242 l 590 31 z "},"u":{"ha":864,"x_min":53,"x_max":815,"o":"m 815 0 l 544 0 l 517 76 q 310 -21 432 -21 q 121 57 189 -21 q 53 265 53 135 l 53 706 l 351 706 l 351 329 q 372 267 351 292 q 429 243 393 243 q 494 273 471 243 q 517 349 517 303 l 517 706 l 815 706 l 815 0 z "},"v":{"ha":871,"x_min":0,"x_max":871,"o":"m 871 706 l 582 0 l 289 0 l 0 706 l 310 706 l 435 363 l 561 706 l 871 706 z "},"w":{"ha":1126,"x_min":0,"x_max":1126,"o":"m 1126 706 l 914 0 l 665 0 l 564 315 l 461 0 l 213 0 l 0 706 l 292 706 l 365 433 l 471 706 l 656 706 l 761 433 l 835 706 l 1126 706 z "},"x":{"ha":874,"x_min":7,"x_max":867,"o":"m 643 338 l 867 0 l 538 0 l 438 160 l 336 0 l 7 0 l 231 338 l 7 706 l 336 706 l 438 531 l 538 706 l 867 706 l 643 338 z "},"y":{"ha":894,"x_min":0,"x_max":894,"o":"m 894 706 l 447 -333 l 138 -333 l 293 26 l 0 706 l 310 706 l 442 372 l 585 706 l 894 706 z "},"z":{"ha":789,"x_min":42,"x_max":747,"o":"m 747 229 l 747 0 l 42 0 l 42 190 l 336 476 l 49 476 l 49 706 l 742 706 l 742 511 l 450 229 l 747 229 z "},"{":{"ha":575,"x_min":28,"x_max":533,"o":"m 403 600 q 329 457 403 493 q 403 314 403 421 l 403 149 q 431 117 403 117 l 533 117 l 533 -114 l 318 -114 q 188 -64 236 -114 q 138 71 138 -12 l 138 272 q 82 332 138 318 l 28 346 l 28 568 l 82 582 q 138 642 138 596 l 138 843 q 188 978 138 926 q 318 1029 238 1029 l 533 1029 l 533 797 l 431 797 q 403 765 403 797 l 403 600 z "},"|":{"ha":363,"x_min":49,"x_max":314,"o":"m 314 -100 l 49 -100 l 49 1029 l 314 1029 l 314 -100 z "},"}":{"ha":575,"x_min":42,"x_max":547,"o":"m 493 332 q 438 272 438 318 l 438 71 q 389 -64 438 -11 q 257 -114 339 -114 l 42 -114 l 42 117 l 144 117 q 172 149 172 117 l 172 314 q 246 457 172 421 q 172 600 172 493 l 172 765 q 144 797 172 797 l 42 797 l 42 1029 l 257 1029 q 388 978 338 1029 q 438 843 438 926 l 438 642 q 493 582 438 596 l 547 568 l 547 346 l 493 332 z "},"~":{"ha":722,"x_min":39,"x_max":683,"o":"m 39 311 q 100 517 39 447 q 235 585 160 585 q 354 556 292 585 q 428 526 415 526 q 461 539 449 526 q 474 571 474 551 l 683 571 q 622 365 683 435 q 485 297 560 297 q 369 324 428 297 q 294 349 310 349 q 249 311 264 349 l 39 311 z "},"¡":{"ha":438,"x_min":49,"x_max":390,"o":"m 228 418 q 113 464 158 418 q 67 572 67 510 q 113 683 67 640 q 228 726 156 726 q 344 683 300 726 q 390 572 390 640 q 344 464 390 510 q 228 418 297 418 m 49 -169 l 76 372 l 361 372 l 389 -169 l 389 -212 l 49 -212 l 49 -169 z "},"¢":{"ha":814,"x_min":21,"x_max":793,"o":"m 793 276 q 713 100 778 172 q 543 -3 642 25 l 543 -181 l 299 -181 l 299 -4 q 99 126 175 32 q 21 353 21 221 q 99 581 21 483 q 299 710 176 675 l 299 875 l 543 875 l 543 710 q 711 608 643 681 q 792 433 776 536 l 521 383 q 486 456 515 426 q 419 481 460 481 q 339 443 371 481 q 307 353 307 404 q 339 263 307 301 q 419 225 371 225 q 486 251 460 225 q 521 324 515 281 l 793 276 z "},"£":{"ha":803,"x_min":25,"x_max":789,"o":"m 768 0 l 25 0 l 32 197 l 106 222 l 108 308 l 36 308 l 44 539 l 117 539 l 119 650 q 167 810 122 742 q 290 915 213 878 q 464 951 367 951 q 626 916 554 951 q 742 816 699 881 q 789 668 785 751 l 500 619 q 454 693 493 693 q 414 650 415 693 l 411 539 l 629 539 l 621 308 l 403 308 l 400 253 l 776 253 l 768 0 z "},"¥":{"ha":988,"x_min":14,"x_max":974,"o":"m 714 442 l 872 442 l 872 289 l 640 289 l 640 247 l 872 247 l 872 94 l 640 94 l 640 0 l 333 0 l 333 94 l 117 94 l 117 247 l 333 247 l 333 289 l 117 289 l 117 442 l 264 442 l 14 931 l 328 931 l 488 590 l 646 931 l 974 931 l 714 442 z "},"§":{"ha":799,"x_min":28,"x_max":771,"o":"m 771 376 q 660 171 771 244 q 693 46 693 115 q 610 -137 693 -78 q 394 -199 524 -199 q 168 -132 250 -199 q 74 50 86 -65 l 317 96 q 338 29 321 46 q 381 13 354 13 q 411 24 397 13 q 424 53 424 35 q 369 103 424 85 l 211 158 q 28 378 28 224 q 139 583 28 510 q 106 708 106 640 q 189 892 106 832 q 404 951 271 951 q 626 886 544 951 q 717 711 706 821 l 472 668 q 418 742 468 742 q 388 732 399 742 q 375 701 375 722 q 429 651 375 671 l 588 596 q 771 376 771 532 m 499 293 q 519 336 519 313 q 475 389 519 369 l 310 457 l 300 461 q 279 418 279 443 q 324 365 279 385 l 489 297 l 499 293 z "},"¨":{"ha":833,"x_min":92,"x_max":743,"o":"m 243 1050 q 353 1007 310 1050 q 396 903 396 964 q 353 796 396 838 q 243 754 310 754 q 135 796 176 754 q 92 903 92 838 q 135 1007 92 964 q 243 1050 178 1050 m 590 1050 q 700 1007 657 1050 q 743 903 743 964 q 700 796 743 838 q 590 754 657 754 q 482 796 524 754 q 439 903 439 838 q 482 1007 439 964 q 590 1050 525 1050 z "},"©":{"ha":1051,"x_min":39,"x_max":1013,"o":"m 526 951 q 871 813 728 951 q 1013 464 1013 672 q 871 117 1013 254 q 526 -21 729 -21 q 182 117 324 -21 q 39 464 39 254 q 182 813 39 674 q 526 951 322 951 m 526 874 q 243 757 360 874 q 125 464 125 640 q 243 174 125 288 q 526 58 361 58 q 810 174 692 58 q 926 464 926 289 q 810 757 926 639 q 526 874 692 874 m 536 725 q 707 665 639 725 q 779 521 778 604 l 621 493 q 590 544 615 526 q 531 563 567 563 q 464 535 492 563 q 436 464 436 507 q 464 393 436 421 q 531 365 492 365 q 621 442 608 365 l 782 414 q 708 264 778 325 q 536 203 639 203 q 346 276 424 203 q 267 464 267 350 q 346 653 267 581 q 536 725 422 725 z "},"ª":{"ha":543,"x_min":17,"x_max":526,"o":"m 281 939 q 460 888 392 939 q 526 732 526 836 l 526 449 l 319 449 l 319 476 q 192 435 264 435 q 65 478 113 435 q 17 592 17 522 q 75 706 17 664 q 242 746 135 746 l 319 746 l 319 760 l 319 764 q 311 785 319 776 q 282 794 301 794 q 242 768 254 794 l 49 799 q 281 939 89 939 m 269 565 q 319 621 319 565 l 319 642 l 275 642 q 228 604 228 642 q 239 576 228 588 q 269 565 250 565 z "},"«":{"ha":794,"x_min":35,"x_max":760,"o":"m 35 364 l 163 611 l 426 611 l 299 364 l 426 117 l 163 117 l 35 364 m 368 364 l 496 611 l 760 611 l 632 364 l 760 117 l 496 117 l 368 364 z "},"®":{"ha":639,"x_min":42,"x_max":597,"o":"m 319 951 q 517 872 436 951 q 597 672 597 793 q 517 474 597 553 q 319 394 436 394 q 122 474 203 394 q 42 672 42 553 q 122 872 42 793 q 319 951 203 951 m 319 461 q 468 522 407 461 q 529 672 529 583 q 468 825 529 764 q 319 886 407 886 q 172 825 233 886 q 111 672 111 764 q 172 522 111 583 q 319 461 233 461 m 442 718 q 394 639 442 664 l 454 558 l 361 558 l 313 626 l 293 626 l 293 558 l 214 558 l 214 804 l 344 804 q 417 781 390 804 q 442 718 442 756 m 338 689 q 369 717 369 689 q 338 742 369 742 l 293 742 l 293 689 l 338 689 z "},"¯":{"ha":833,"x_min":168,"x_max":665,"o":"m 665 788 l 168 788 l 168 1004 l 665 1004 l 665 788 z "},"°":{"ha":626,"x_min":79,"x_max":547,"o":"m 314 951 q 479 889 411 951 q 547 725 547 825 q 479 563 547 625 q 314 500 411 500 q 149 563 217 500 q 79 725 79 625 q 149 889 79 824 q 314 951 217 951 m 314 647 q 367 669 344 647 q 389 725 389 690 q 367 783 389 761 q 314 804 344 804 q 261 783 283 804 q 238 725 238 760 q 261 669 238 690 q 314 647 283 647 z "},"±":{"ha":778,"x_min":42,"x_max":736,"o":"m 736 694 l 736 472 l 500 472 l 500 292 l 278 292 l 278 472 l 42 472 l 42 694 l 278 694 l 278 903 l 500 903 l 500 694 l 736 694 m 42 222 l 736 222 l 736 0 l 42 0 l 42 222 z "},"´":{"ha":833,"x_min":204,"x_max":676,"o":"m 486 788 l 204 788 l 315 1021 l 676 1021 l 486 788 z "},"¶":{"ha":868,"x_min":28,"x_max":819,"o":"m 388 0 l 388 415 l 318 415 q 110 488 190 415 q 28 678 28 558 q 101 865 28 800 q 299 931 175 931 l 571 931 l 571 0 l 388 0 m 819 0 l 636 0 l 636 931 l 819 931 l 819 0 z "},"·":{"ha":365,"x_min":21,"x_max":344,"o":"m 182 532 q 299 485 251 532 q 344 369 344 438 q 299 254 344 300 q 182 208 253 208 q 67 254 110 208 q 21 369 21 300 q 67 485 21 438 q 182 532 113 532 z "},"¸":{"ha":833,"x_min":201,"x_max":560,"o":"m 350 0 l 560 0 l 506 -222 l 201 -222 l 350 0 z "},"º":{"ha":576,"x_min":17,"x_max":560,"o":"m 288 939 q 481 868 401 939 q 560 686 560 797 q 481 506 560 576 q 288 435 401 435 q 96 506 175 435 q 17 686 17 576 q 96 868 17 797 q 288 939 175 939 m 288 613 q 338 635 319 613 q 357 686 357 657 q 338 740 357 717 q 288 761 319 761 q 239 740 257 761 q 219 686 219 717 q 239 635 219 657 q 288 613 257 613 z "},"»":{"ha":794,"x_min":35,"x_max":760,"o":"m 35 117 l 163 364 l 35 611 l 299 611 l 426 364 l 299 117 l 35 117 m 368 117 l 496 364 l 368 611 l 632 611 l 760 364 l 632 117 l 368 117 z "},"¼":{"ha":1072,"x_min":14,"x_max":1060,"o":"m 138 706 l 14 644 l 14 822 l 200 931 l 325 931 l 325 389 l 138 389 l 138 706 m 929 931 l 275 0 l 126 0 l 781 931 l 929 931 m 1060 74 l 997 74 l 997 0 l 822 0 l 822 74 l 547 74 l 547 243 l 778 542 l 997 542 l 997 226 l 1060 226 l 1060 74 m 822 226 l 822 358 l 724 226 l 822 226 z "},"½":{"ha":1107,"x_min":14,"x_max":1068,"o":"m 138 706 l 14 644 l 14 822 l 200 931 l 325 931 l 325 389 l 138 389 l 138 706 m 915 931 l 261 0 l 113 0 l 767 931 l 915 931 m 1065 156 l 1065 0 l 640 0 l 640 111 l 829 289 l 840 300 q 850 310 850 310 l 858 318 q 867 326 864 322 l 874 333 l 878 342 l 882 349 l 885 357 l 885 364 q 853 396 885 396 q 813 336 813 396 l 636 368 q 696 503 636 451 q 853 554 753 554 q 1008 504 949 554 q 1068 364 1068 454 q 1044 278 1068 314 q 968 200 1021 244 l 915 156 l 1065 156 z "},"¾":{"ha":1157,"x_min":19,"x_max":1144,"o":"m 471 558 q 407 431 471 482 q 244 378 342 378 q 92 426 153 378 q 19 553 29 475 l 193 583 q 247 529 210 529 q 290 564 290 529 q 276 590 290 581 q 239 600 263 600 l 175 600 l 175 728 l 235 728 q 286 763 286 728 q 243 797 286 797 q 194 744 201 797 l 22 775 q 93 894 31 842 q 242 944 153 944 q 400 894 338 944 q 463 768 463 843 q 400 668 463 704 q 471 558 471 629 m 1014 931 l 360 0 l 211 0 l 865 931 l 1014 931 m 1144 74 l 1082 74 l 1082 0 l 907 0 l 907 74 l 632 74 l 632 243 l 863 542 l 1082 542 l 1082 226 l 1144 226 l 1144 74 m 907 226 l 907 358 l 808 226 l 907 226 z "},"¿":{"ha":778,"x_min":21,"x_max":750,"o":"m 397 419 q 282 465 328 419 q 235 574 235 511 q 281 685 235 642 q 397 728 325 728 q 514 685 469 728 q 558 574 558 640 q 513 465 558 511 q 397 419 467 419 m 750 38 q 624 -158 718 -86 q 358 -232 526 -232 q 115 -147 208 -232 q 21 64 21 -61 q 79 226 21 160 q 243 324 138 293 l 243 382 l 542 382 l 540 144 l 418 144 q 350 128 375 144 q 324 85 324 111 q 340 42 324 58 q 382 25 356 25 q 428 46 410 25 q 449 99 446 64 l 750 38 z "},"À":{"ha":1075,"x_min":0,"x_max":1075,"o":"m 411 1013 l 221 1246 l 582 1246 l 693 1013 l 411 1013 m 1075 0 l 747 0 l 710 113 l 367 113 l 328 0 l 0 0 l 361 931 l 714 931 l 1075 0 m 625 363 l 539 615 l 453 363 l 625 363 z "},"Á":{"ha":1075,"x_min":0,"x_max":1075,"o":"m 675 1013 l 393 1013 l 504 1246 l 865 1246 l 675 1013 m 1075 0 l 747 0 l 710 113 l 367 113 l 328 0 l 0 0 l 361 931 l 714 931 l 1075 0 m 625 363 l 539 615 l 453 363 l 625 363 z "},"Â":{"ha":1075,"x_min":0,"x_max":1075,"o":"m 496 1013 l 217 1013 l 382 1246 l 694 1246 l 860 1013 l 581 1013 l 539 1074 l 496 1013 m 1075 0 l 747 0 l 710 113 l 367 113 l 328 0 l 0 0 l 361 931 l 714 931 l 1075 0 m 625 363 l 539 615 l 453 363 l 625 363 z "},"Ã":{"ha":1075,"x_min":0,"x_max":1075,"o":"m 482 1050 q 451 1043 461 1050 q 431 1013 442 1038 l 271 1013 q 322 1208 271 1135 q 453 1283 372 1283 q 549 1260 497 1283 q 618 1235 596 1235 q 649 1243 639 1235 q 669 1276 660 1251 l 829 1276 q 779 1081 829 1156 q 646 1006 728 1006 q 553 1028 599 1006 q 482 1050 507 1050 m 1075 0 l 747 0 l 710 113 l 367 113 l 328 0 l 0 0 l 361 931 l 714 931 l 1075 0 m 625 363 l 539 615 l 453 363 l 625 363 z "},"Ä":{"ha":1075,"x_min":0,"x_max":1075,"o":"m 365 979 q 257 1021 299 979 q 214 1128 214 1063 q 257 1232 214 1189 q 365 1275 300 1275 q 475 1232 432 1275 q 518 1128 518 1189 q 475 1021 518 1063 q 365 979 432 979 m 713 979 q 604 1021 646 979 q 561 1128 561 1063 q 604 1232 561 1189 q 713 1275 647 1275 q 822 1232 779 1275 q 865 1128 865 1189 q 822 1021 865 1063 q 713 979 779 979 m 1075 0 l 747 0 l 710 113 l 367 113 l 328 0 l 0 0 l 361 931 l 714 931 l 1075 0 m 625 363 l 539 615 l 453 363 l 625 363 z "},"Å":{"ha":1075,"x_min":0,"x_max":1075,"o":"m 539 978 q 400 1033 456 978 q 343 1167 343 1088 q 400 1303 343 1246 q 539 1357 456 1357 q 678 1303 621 1357 q 735 1167 735 1246 q 678 1033 735 1088 q 539 978 622 978 m 539 1221 q 500 1206 518 1221 q 483 1167 483 1189 q 500 1131 483 1146 q 539 1114 517 1114 q 578 1131 561 1114 q 594 1167 594 1146 q 578 1206 594 1189 q 539 1221 560 1221 m 1075 0 l 747 0 l 710 113 l 367 113 l 328 0 l 0 0 l 361 931 l 714 931 l 1075 0 m 625 363 l 539 615 l 453 363 l 625 363 z "},"Æ":{"ha":1467,"x_min":0,"x_max":1443,"o":"m 1443 251 l 1429 0 l 671 0 l 671 113 l 418 113 l 363 0 l 0 0 l 539 931 l 1422 931 l 1422 679 l 978 679 l 978 576 l 1413 576 l 1413 354 l 978 354 l 978 251 l 1443 251 m 671 361 l 671 621 l 542 361 l 671 361 z "},"Ç":{"ha":1065,"x_min":35,"x_max":1031,"o":"m 35 465 q 102 713 35 601 q 285 888 169 824 q 542 951 401 951 q 764 908 660 951 q 939 785 868 865 q 1029 597 1010 704 l 721 528 q 542 679 690 679 q 440 651 486 679 q 369 574 394 622 q 343 465 343 525 q 369 356 343 406 q 441 279 396 307 q 542 251 486 251 q 722 414 685 251 l 1031 342 q 899 98 1006 190 q 633 -15 793 6 l 568 -122 q 618 -162 597 -136 q 639 -225 639 -189 q 635 -254 639 -237 q 577 -322 625 -296 q 464 -347 529 -347 q 366 -331 415 -347 q 275 -282 317 -315 l 301 -201 q 400 -233 357 -233 q 444 -223 426 -233 q 467 -197 463 -212 q 468 -185 468 -193 q 365 -128 468 -142 l 422 -8 q 222 84 310 17 q 84 251 133 151 q 35 465 35 350 z "},"È":{"ha":844,"x_min":49,"x_max":821,"o":"m 294 1013 l 104 1246 l 465 1246 l 576 1013 l 294 1013 m 821 251 l 807 0 l 49 0 l 49 931 l 800 931 l 800 679 l 356 679 l 356 576 l 790 576 l 790 354 l 356 354 l 356 251 l 821 251 z "},"É":{"ha":844,"x_min":49,"x_max":821,"o":"m 558 1013 l 276 1013 l 388 1246 l 749 1246 l 558 1013 m 821 251 l 807 0 l 49 0 l 49 931 l 800 931 l 800 679 l 356 679 l 356 576 l 790 576 l 790 354 l 356 354 l 356 251 l 821 251 z "},"Ê":{"ha":844,"x_min":49,"x_max":821,"o":"m 379 1013 l 100 1013 l 265 1246 l 578 1246 l 743 1013 l 464 1013 l 422 1074 l 379 1013 m 821 251 l 807 0 l 49 0 l 49 931 l 800 931 l 800 679 l 356 679 l 356 576 l 790 576 l 790 354 l 356 354 l 356 251 l 821 251 z "},"Ë":{"ha":844,"x_min":49,"x_max":821,"o":"m 249 979 q 140 1021 182 979 q 97 1128 97 1063 q 140 1232 97 1189 q 249 1275 183 1275 q 358 1232 315 1275 q 401 1128 401 1189 q 358 1021 401 1063 q 249 979 314 979 m 596 979 q 488 1021 529 979 q 444 1128 444 1063 q 488 1232 444 1189 q 596 1275 531 1275 q 706 1232 663 1275 q 749 1128 749 1189 q 706 1021 749 1063 q 596 979 663 979 m 821 251 l 807 0 l 49 0 l 49 931 l 800 931 l 800 679 l 356 679 l 356 576 l 790 576 l 790 354 l 356 354 l 356 251 l 821 251 z "},"Ì":{"ha":640,"x_min":3,"x_max":613,"o":"m 193 1013 l 3 1246 l 364 1246 l 475 1013 l 193 1013 m 474 672 l 474 258 l 613 258 l 613 0 l 28 0 l 28 258 l 167 258 l 167 672 l 28 672 l 28 931 l 613 931 l 613 672 l 474 672 z "},"Í":{"ha":640,"x_min":28,"x_max":647,"o":"m 457 1013 l 175 1013 l 286 1246 l 647 1246 l 457 1013 m 613 931 l 613 672 l 474 672 l 474 258 l 613 258 l 613 0 l 28 0 l 28 258 l 167 258 l 167 672 l 28 672 l 28 931 l 613 931 z "},"Î":{"ha":640,"x_min":-1,"x_max":642,"o":"m 278 1013 l -1 1013 l 164 1246 l 476 1246 l 642 1013 l 363 1013 l 321 1074 l 278 1013 m 613 931 l 613 672 l 474 672 l 474 258 l 613 258 l 613 0 l 28 0 l 28 258 l 167 258 l 167 672 l 28 672 l 28 931 l 613 931 z "},"Ï":{"ha":640,"x_min":-4,"x_max":647,"o":"m 147 979 q 39 1021 81 979 q -4 1128 -4 1063 q 39 1232 -4 1189 q 147 1275 82 1275 q 257 1232 214 1275 q 300 1128 300 1189 q 257 1021 300 1063 q 147 979 213 979 m 494 979 q 386 1021 428 979 q 343 1128 343 1063 q 386 1232 343 1189 q 494 1275 429 1275 q 604 1232 561 1275 q 647 1128 647 1189 q 604 1021 647 1063 q 494 979 561 979 m 613 931 l 613 672 l 474 672 l 474 258 l 613 258 l 613 0 l 28 0 l 28 258 l 167 258 l 167 672 l 28 672 l 28 931 l 613 931 z "},"Ð":{"ha":1014,"x_min":14,"x_max":993,"o":"m 488 931 q 854 801 714 931 q 993 465 993 672 q 854 129 993 258 q 488 0 715 0 l 69 0 l 69 333 l 14 333 l 14 592 l 69 592 l 69 931 l 488 931 m 460 253 q 622 313 561 253 q 683 465 683 374 q 622 618 683 557 q 460 678 561 678 l 376 678 l 376 592 l 479 592 l 479 333 l 376 333 l 376 253 l 460 253 z "},"Ñ":{"ha":1039,"x_min":49,"x_max":990,"o":"m 463 1050 q 432 1043 442 1050 q 411 1013 422 1038 l 251 1013 q 303 1208 251 1135 q 433 1283 353 1283 q 529 1260 478 1283 q 599 1235 578 1235 q 629 1243 619 1235 q 650 1276 640 1251 l 810 1276 q 760 1081 810 1156 q 626 1006 708 1006 q 533 1028 579 1006 q 463 1050 488 1050 m 990 931 l 990 0 l 739 0 l 356 419 l 356 0 l 49 0 l 49 931 l 300 931 l 683 492 l 683 931 l 990 931 z "},"Ò":{"ha":1083,"x_min":35,"x_max":1049,"o":"m 414 1013 l 224 1246 l 585 1246 l 696 1013 l 414 1013 m 542 951 q 903 811 754 951 q 1049 465 1049 669 q 903 121 1049 261 q 542 -21 756 -21 q 182 121 328 -21 q 35 465 35 260 q 182 811 35 669 q 542 951 329 951 m 542 251 q 685 313 628 251 q 740 465 740 372 q 685 618 740 558 q 542 679 628 679 q 399 618 456 679 q 343 465 343 558 q 399 313 343 372 q 542 251 456 251 z "},"Ó":{"ha":1083,"x_min":35,"x_max":1049,"o":"m 678 1013 l 396 1013 l 507 1246 l 868 1246 l 678 1013 m 542 951 q 903 811 754 951 q 1049 465 1049 669 q 903 121 1049 261 q 542 -21 756 -21 q 182 121 328 -21 q 35 465 35 260 q 182 811 35 669 q 542 951 329 951 m 542 251 q 685 313 628 251 q 740 465 740 372 q 685 618 740 558 q 542 679 628 679 q 399 618 456 679 q 343 465 343 558 q 399 313 343 372 q 542 251 456 251 z "},"Ô":{"ha":1083,"x_min":35,"x_max":1049,"o":"m 499 1013 l 219 1013 l 385 1246 l 697 1246 l 863 1013 l 583 1013 l 542 1074 l 499 1013 m 542 951 q 903 811 754 951 q 1049 465 1049 669 q 903 121 1049 261 q 542 -21 756 -21 q 182 121 328 -21 q 35 465 35 260 q 182 811 35 669 q 542 951 329 951 m 542 251 q 685 313 628 251 q 740 465 740 372 q 685 618 740 558 q 542 679 628 679 q 399 618 456 679 q 343 465 343 558 q 399 313 343 372 q 542 251 456 251 z "},"Õ":{"ha":1083,"x_min":35,"x_max":1049,"o":"m 485 1050 q 454 1043 464 1050 q 433 1013 444 1038 l 274 1013 q 325 1208 274 1135 q 456 1283 375 1283 q 551 1260 500 1283 q 621 1235 600 1235 q 651 1243 642 1235 q 672 1276 661 1251 l 832 1276 q 782 1081 832 1156 q 649 1006 731 1006 q 556 1028 601 1006 q 485 1050 510 1050 m 542 951 q 903 811 754 951 q 1049 465 1049 669 q 903 121 1049 261 q 542 -21 756 -21 q 182 121 328 -21 q 35 465 35 260 q 182 811 35 669 q 542 951 329 951 m 542 251 q 685 313 628 251 q 740 465 740 372 q 685 618 740 558 q 542 679 628 679 q 399 618 456 679 q 343 465 343 558 q 399 313 343 372 q 542 251 456 251 z "},"Ö":{"ha":1083,"x_min":35,"x_max":1049,"o":"m 368 979 q 260 1021 301 979 q 217 1128 217 1063 q 260 1232 217 1189 q 368 1275 303 1275 q 478 1232 435 1275 q 521 1128 521 1189 q 478 1021 521 1063 q 368 979 435 979 m 715 979 q 607 1021 649 979 q 564 1128 564 1063 q 607 1232 564 1189 q 715 1275 650 1275 q 825 1232 782 1275 q 868 1128 868 1189 q 825 1021 868 1063 q 715 979 782 979 m 542 951 q 903 811 754 951 q 1049 465 1049 669 q 903 121 1049 261 q 542 -21 756 -21 q 182 121 328 -21 q 35 465 35 260 q 182 811 35 669 q 542 951 329 951 m 542 251 q 685 313 628 251 q 740 465 740 372 q 685 618 740 558 q 542 679 628 679 q 399 618 456 679 q 343 465 343 558 q 399 313 343 372 q 542 251 456 251 z "},"×":{"ha":747,"x_min":42,"x_max":706,"o":"m 528 417 l 706 240 l 551 86 l 374 263 l 196 86 l 42 240 l 219 417 l 42 593 l 196 747 l 374 571 l 551 747 l 706 593 l 528 417 z "},"Ø":{"ha":1083,"x_min":35,"x_max":1049,"o":"m 957 749 q 1049 465 1049 624 q 903 121 1049 261 q 542 -21 756 -21 q 264 56 388 -21 l 172 -36 l 54 82 l 139 167 q 35 465 35 299 q 182 811 35 669 q 542 951 329 951 q 836 864 707 951 l 911 939 l 1029 821 l 957 749 m 343 465 q 357 385 343 417 l 631 658 q 542 679 590 679 q 399 618 456 679 q 343 465 343 558 m 542 251 q 685 313 628 251 q 740 465 740 372 q 733 525 740 497 l 472 264 q 542 251 504 251 z "},"Ù":{"ha":996,"x_min":56,"x_max":940,"o":"m 369 1013 l 179 1246 l 540 1246 l 651 1013 l 369 1013 m 940 424 q 821 99 940 218 q 504 -21 701 -21 q 178 99 301 -21 q 56 424 56 217 l 56 931 l 364 931 l 364 424 q 401 296 364 340 q 504 251 439 251 q 597 296 561 251 q 632 424 632 339 l 632 931 l 940 931 l 940 424 z "},"Ú":{"ha":996,"x_min":56,"x_max":940,"o":"m 633 1013 l 351 1013 l 463 1246 l 824 1246 l 633 1013 m 940 424 q 821 99 940 218 q 504 -21 701 -21 q 178 99 301 -21 q 56 424 56 217 l 56 931 l 364 931 l 364 424 q 401 296 364 340 q 504 251 439 251 q 597 296 561 251 q 632 424 632 339 l 632 931 l 940 931 l 940 424 z "},"Û":{"ha":996,"x_min":56,"x_max":940,"o":"m 454 1013 l 175 1013 l 340 1246 l 653 1246 l 818 1013 l 539 1013 l 497 1074 l 454 1013 m 940 424 q 821 99 940 218 q 504 -21 701 -21 q 178 99 301 -21 q 56 424 56 217 l 56 931 l 364 931 l 364 424 q 401 296 364 340 q 504 251 439 251 q 597 296 561 251 q 632 424 632 339 l 632 931 l 940 931 l 940 424 z "},"Ü":{"ha":996,"x_min":56,"x_max":940,"o":"m 324 979 q 215 1021 257 979 q 172 1128 172 1063 q 215 1232 172 1189 q 324 1275 258 1275 q 433 1232 390 1275 q 476 1128 476 1189 q 433 1021 476 1063 q 324 979 390 979 m 671 979 q 563 1021 604 979 q 519 1128 519 1063 q 563 1232 519 1189 q 671 1275 606 1275 q 781 1232 738 1275 q 824 1128 824 1189 q 781 1021 824 1063 q 671 979 738 979 m 940 424 q 821 99 940 218 q 504 -21 701 -21 q 178 99 301 -21 q 56 424 56 217 l 56 931 l 364 931 l 364 424 q 401 296 364 340 q 504 251 439 251 q 597 296 561 251 q 632 424 632 339 l 632 931 l 940 931 l 940 424 z "},"Ý":{"ha":1022,"x_min":0,"x_max":1022,"o":"m 647 1013 l 365 1013 l 476 1246 l 838 1246 l 647 1013 m 1022 931 l 665 279 l 665 0 l 343 0 l 343 279 l 0 931 l 335 931 l 513 583 l 688 931 l 1022 931 z "},"Þ":{"ha":907,"x_min":49,"x_max":879,"o":"m 528 794 q 783 706 686 794 q 879 471 879 617 q 775 228 879 319 q 500 136 671 136 l 356 136 l 356 0 l 49 0 l 49 931 l 356 931 l 356 794 l 528 794 m 479 368 q 553 394 526 368 q 579 461 579 419 q 553 525 579 500 q 479 549 525 549 l 356 549 l 356 368 l 479 368 z "},"ß":{"ha":936,"x_min":49,"x_max":915,"o":"m 706 528 q 857 442 796 507 q 915 278 915 378 q 828 64 915 150 q 596 -21 739 -21 q 404 -6 496 -21 l 432 238 q 521 228 496 228 q 586 251 558 228 q 611 308 611 275 q 583 368 611 343 q 510 392 553 392 l 442 392 l 442 628 l 481 628 q 538 651 514 628 q 560 707 560 674 q 535 764 560 743 q 468 785 510 785 q 381 750 414 785 q 347 656 347 715 l 347 0 l 49 0 l 49 633 q 164 917 49 810 q 468 1024 279 1024 q 750 946 639 1024 q 860 739 860 867 q 817 600 860 656 q 706 528 772 542 z "},"à":{"ha":799,"x_min":14,"x_max":757,"o":"m 279 788 l 89 1021 l 450 1021 l 561 788 l 279 788 m 408 726 q 665 648 574 726 q 757 421 757 569 l 757 0 l 494 0 l 467 44 q 265 -21 386 -21 q 83 42 153 -21 q 14 210 14 104 q 102 383 14 326 q 335 439 190 439 l 467 439 l 467 460 q 450 503 467 488 q 408 518 433 518 q 346 460 357 518 l 65 518 q 408 726 126 726 m 392 186 q 446 206 425 186 q 467 263 467 226 l 467 292 l 413 292 q 357 276 378 292 q 336 236 336 261 q 353 199 336 211 q 392 186 369 186 z "},"á":{"ha":799,"x_min":14,"x_max":757,"o":"m 543 788 l 261 788 l 372 1021 l 733 1021 l 543 788 m 408 726 q 665 648 574 726 q 757 421 757 569 l 757 0 l 494 0 l 467 44 q 265 -21 386 -21 q 83 42 153 -21 q 14 210 14 104 q 102 383 14 326 q 335 439 190 439 l 467 439 l 467 460 q 450 503 467 488 q 408 518 433 518 q 346 460 357 518 l 65 518 q 408 726 126 726 m 392 186 q 446 206 425 186 q 467 263 467 226 l 467 292 l 413 292 q 357 276 378 292 q 336 236 336 261 q 353 199 336 211 q 392 186 369 186 z "},"â":{"ha":799,"x_min":14,"x_max":757,"o":"m 364 788 l 85 788 l 250 1021 l 563 1021 l 728 788 l 449 788 l 407 849 l 364 788 m 408 726 q 665 648 574 726 q 757 421 757 569 l 757 0 l 494 0 l 467 44 q 265 -21 386 -21 q 83 42 153 -21 q 14 210 14 104 q 102 383 14 326 q 335 439 190 439 l 467 439 l 467 460 q 450 503 467 488 q 408 518 433 518 q 346 460 357 518 l 65 518 q 408 726 126 726 m 392 186 q 446 206 425 186 q 467 263 467 226 l 467 292 l 413 292 q 357 276 378 292 q 336 236 336 261 q 353 199 336 211 q 392 186 369 186 z "},"ã":{"ha":799,"x_min":14,"x_max":757,"o":"m 350 825 q 319 818 328 825 q 299 788 310 811 l 139 788 q 187 980 139 901 q 321 1058 235 1058 q 417 1035 365 1058 q 492 1010 464 1010 q 517 1018 507 1010 q 538 1051 528 1026 l 697 1051 q 647 856 697 931 q 514 781 596 781 q 467 788 490 781 q 414 807 444 794 q 350 825 369 825 m 408 726 q 665 648 574 726 q 757 421 757 569 l 757 0 l 494 0 l 467 44 q 265 -21 386 -21 q 83 42 153 -21 q 14 210 14 104 q 102 383 14 326 q 335 439 190 439 l 467 439 l 467 460 q 450 503 467 488 q 408 518 433 518 q 346 460 357 518 l 65 518 q 408 726 126 726 m 392 186 q 446 206 425 186 q 467 263 467 226 l 467 292 l 413 292 q 357 276 378 292 q 336 236 336 261 q 353 199 336 211 q 392 186 369 186 z "},"ä":{"ha":799,"x_min":14,"x_max":757,"o":"m 233 754 q 124 796 167 754 q 82 903 82 838 q 126 1008 82 965 q 233 1050 169 1050 q 342 1007 299 1050 q 386 903 386 964 q 343 795 386 836 q 233 754 300 754 m 581 754 q 472 796 514 754 q 429 903 429 838 q 473 1008 429 965 q 581 1050 517 1050 q 690 1007 646 1050 q 733 903 733 964 q 690 795 733 836 q 581 754 647 754 m 408 726 q 665 648 574 726 q 757 421 757 569 l 757 0 l 494 0 l 467 44 q 265 -21 386 -21 q 83 42 153 -21 q 14 210 14 104 q 102 383 14 326 q 335 439 190 439 l 467 439 l 467 460 q 450 503 467 488 q 408 518 433 518 q 346 460 357 518 l 65 518 q 408 726 126 726 m 392 186 q 446 206 425 186 q 467 263 467 226 l 467 292 l 413 292 q 357 276 378 292 q 336 236 336 261 q 353 199 336 211 q 392 186 369 186 z "},"å":{"ha":799,"x_min":14,"x_max":757,"o":"m 407 753 q 308 778 353 753 q 238 846 264 803 q 211 942 211 889 q 267 1078 211 1024 q 407 1132 324 1132 q 506 1107 461 1132 q 576 1039 550 1082 q 603 942 603 996 q 576 846 603 889 q 506 778 550 803 q 407 753 461 753 m 407 996 q 368 980 385 996 q 351 942 351 964 q 368 905 351 921 q 407 889 385 889 q 446 904 429 889 q 463 942 463 919 q 446 980 463 964 q 407 996 429 996 m 408 726 q 665 648 574 726 q 757 421 757 569 l 757 0 l 494 0 l 467 44 q 265 -21 386 -21 q 83 42 151 -21 q 14 210 14 106 q 102 383 14 326 q 335 439 190 439 l 467 439 l 467 460 q 450 503 467 488 q 408 518 433 518 q 346 460 357 518 l 65 518 q 408 726 126 726 m 392 186 q 446 206 425 186 q 467 263 467 226 l 467 292 l 413 292 q 357 276 378 292 q 336 236 336 261 q 353 199 336 211 q 392 186 369 186 z "},"æ":{"ha":1229,"x_min":14,"x_max":1208,"o":"m 732 282 q 836 200 757 200 q 894 213 872 200 q 932 260 917 222 l 1188 207 q 1064 43 1160 104 q 836 -21 967 -21 q 599 50 706 -21 q 329 -21 497 -21 q 96 38 178 -21 q 14 206 14 94 q 325 418 14 418 l 467 418 l 467 460 q 450 503 467 486 q 408 518 432 518 q 344 460 356 518 l 67 517 q 174 668 85 610 q 408 726 261 726 q 629 674 543 726 q 836 726 719 726 q 1107 624 1004 726 q 1208 325 1208 521 l 1208 282 l 732 282 m 924 418 q 832 501 906 501 q 732 418 756 501 l 924 418 m 397 276 q 321 228 321 276 q 339 190 321 204 q 386 176 357 176 q 442 196 418 176 q 465 247 465 215 l 465 276 l 397 276 z "},"ç":{"ha":814,"x_min":21,"x_max":793,"o":"m 793 276 q 701 90 778 165 q 513 -11 625 14 l 461 -222 l 157 -222 l 301 -6 q 99 124 175 28 q 21 353 21 221 q 138 622 21 517 q 419 726 253 726 q 669 646 564 726 q 792 433 772 565 l 521 383 q 486 456 515 426 q 419 481 460 481 q 339 443 371 481 q 307 353 307 404 q 339 263 307 301 q 419 225 371 225 q 486 251 460 225 q 521 324 515 281 l 793 276 z "},"è":{"ha":808,"x_min":21,"x_max":788,"o":"m 288 788 l 97 1021 l 458 1021 l 569 788 l 288 788 m 311 282 q 415 200 336 200 q 478 215 450 200 q 515 257 506 231 l 781 206 q 644 36 739 93 q 415 -21 547 -21 q 136 85 250 -21 q 21 353 21 189 q 136 622 21 515 q 414 726 251 726 q 686 624 583 726 q 788 325 788 521 l 788 282 l 311 282 m 414 503 q 313 432 340 503 l 504 432 q 469 485 493 467 q 414 503 446 503 z "},"é":{"ha":808,"x_min":21,"x_max":788,"o":"m 551 788 l 269 788 l 381 1021 l 742 1021 l 551 788 m 311 282 q 415 200 336 200 q 478 215 450 200 q 515 257 506 231 l 781 206 q 644 36 739 93 q 415 -21 547 -21 q 136 85 250 -21 q 21 353 21 189 q 136 622 21 515 q 414 726 251 726 q 686 624 583 726 q 788 325 788 521 l 788 282 l 311 282 m 414 503 q 313 432 340 503 l 504 432 q 469 485 493 467 q 414 503 446 503 z "},"ê":{"ha":808,"x_min":21,"x_max":788,"o":"m 372 788 l 93 788 l 258 1021 l 571 1021 l 736 788 l 457 788 l 415 849 l 372 788 m 311 282 q 415 200 336 200 q 478 215 450 200 q 515 257 506 231 l 781 206 q 644 36 739 93 q 415 -21 547 -21 q 136 85 250 -21 q 21 353 21 189 q 136 622 21 515 q 414 726 251 726 q 686 624 583 726 q 788 325 788 521 l 788 282 l 311 282 m 414 503 q 313 432 340 503 l 504 432 q 469 485 493 467 q 414 503 446 503 z "},"ë":{"ha":808,"x_min":21,"x_max":788,"o":"m 242 754 q 133 796 175 754 q 90 903 90 838 q 133 1007 90 964 q 242 1050 176 1050 q 351 1007 308 1050 q 394 903 394 964 q 351 796 394 838 q 242 754 308 754 m 589 754 q 481 796 522 754 q 438 903 438 838 q 481 1007 438 964 q 589 1050 524 1050 q 699 1007 656 1050 q 742 903 742 964 q 699 796 742 838 q 589 754 656 754 m 311 282 q 415 200 336 200 q 478 215 450 200 q 515 257 506 231 l 781 206 q 644 36 739 93 q 415 -21 547 -21 q 136 85 250 -21 q 21 353 21 189 q 136 622 21 515 q 414 726 251 726 q 686 624 583 726 q 788 325 788 521 l 788 282 l 311 282 m 414 503 q 313 432 340 503 l 504 432 q 469 485 493 467 q 414 503 446 503 z "},"ì":{"ha":415,"x_min":-110,"x_max":363,"o":"m 251 1021 l 363 788 l 81 788 l -110 1021 l 251 1021 m 357 0 l 58 0 l 58 706 l 357 706 l 357 0 z "},"í":{"ha":415,"x_min":58,"x_max":535,"o":"m 344 788 l 63 788 l 174 1021 l 535 1021 l 344 788 m 357 0 l 58 0 l 58 706 l 357 706 l 357 0 z "},"î":{"ha":415,"x_min":-114,"x_max":529,"o":"m 165 788 l -114 788 l 51 1021 l 364 1021 l 529 788 l 250 788 l 208 849 l 165 788 m 58 706 l 357 706 l 357 0 l 58 0 l 58 706 z "},"ï":{"ha":415,"x_min":-117,"x_max":535,"o":"m 35 1050 q 144 1007 101 1050 q 188 903 188 964 q 144 796 188 838 q 35 754 100 754 q -75 796 -32 754 q -117 903 -117 838 q -74 1007 -117 964 q 35 1050 -31 1050 m 382 1050 q 492 1007 449 1050 q 535 903 535 964 q 492 796 535 838 q 382 754 449 754 q 274 796 315 754 q 231 903 231 838 q 274 1007 231 964 q 382 1050 317 1050 m 357 0 l 58 0 l 58 706 l 357 706 l 357 0 z "},"ð":{"ha":843,"x_min":21,"x_max":822,"o":"m 603 871 q 822 356 822 614 q 786 182 822 258 q 692 64 751 107 q 565 0 632 21 q 425 -21 497 -21 q 139 83 256 -21 q 21 353 21 188 q 122 624 21 518 q 369 726 221 726 q 433 718 408 726 q 361 779 414 738 l 183 711 l 135 822 l 229 858 l 39 944 l 39 1000 l 474 1000 l 489 986 l 511 967 l 643 1017 l 692 904 l 603 871 m 422 225 q 506 264 472 225 q 538 354 538 303 q 506 444 538 406 q 422 481 472 481 q 340 443 372 481 q 307 353 307 406 q 340 263 307 300 q 422 225 372 225 z "},"ñ":{"ha":864,"x_min":49,"x_max":811,"o":"m 375 825 q 344 818 353 825 q 324 788 335 811 l 164 788 q 212 980 164 901 q 346 1058 260 1058 q 447 1029 383 1058 q 474 1019 451 1028 q 511 1010 497 1010 q 542 1018 532 1010 q 563 1051 551 1026 l 722 1051 q 672 856 722 931 q 539 781 619 781 q 492 788 515 781 q 439 807 469 794 q 375 825 394 825 m 554 726 q 743 649 675 726 q 811 440 811 571 l 811 0 l 513 0 l 513 376 q 492 439 513 415 q 435 463 471 463 q 370 433 393 463 q 347 357 347 403 l 347 0 l 49 0 l 49 706 l 319 706 l 347 629 q 554 726 432 726 z "},"ò":{"ha":844,"x_min":21,"x_max":824,"o":"m 294 788 l 104 1021 l 465 1021 l 576 788 l 294 788 m 422 726 q 707 622 590 726 q 824 353 824 517 q 707 85 824 189 q 422 -21 592 -21 q 138 85 253 -21 q 21 353 21 189 q 138 622 21 517 q 422 726 254 726 m 422 225 q 506 263 472 225 q 538 353 538 301 q 506 443 538 404 q 422 481 472 481 q 340 443 372 481 q 307 353 307 406 q 340 263 307 300 q 422 225 372 225 z "},"ó":{"ha":844,"x_min":21,"x_max":824,"o":"m 558 788 l 276 788 l 388 1021 l 749 1021 l 558 788 m 422 726 q 707 622 590 726 q 824 353 824 517 q 707 85 824 189 q 422 -21 592 -21 q 138 85 253 -21 q 21 353 21 189 q 138 622 21 517 q 422 726 254 726 m 422 225 q 506 263 472 225 q 538 353 538 301 q 506 443 538 404 q 422 481 472 481 q 340 443 372 481 q 307 353 307 406 q 340 263 307 300 q 422 225 372 225 z "},"ô":{"ha":844,"x_min":21,"x_max":824,"o":"m 379 788 l 100 788 l 265 1021 l 578 1021 l 743 788 l 464 788 l 422 849 l 379 788 m 422 726 q 707 622 590 726 q 824 353 824 517 q 707 85 824 189 q 422 -21 592 -21 q 138 85 253 -21 q 21 353 21 189 q 138 622 21 517 q 422 726 254 726 m 422 225 q 506 263 472 225 q 538 353 538 301 q 506 443 538 404 q 422 481 472 481 q 340 443 372 481 q 307 353 307 406 q 340 263 307 300 q 422 225 372 225 z "},"õ":{"ha":844,"x_min":21,"x_max":824,"o":"m 365 825 q 335 818 344 825 q 314 788 325 813 l 154 788 q 206 983 154 910 q 336 1058 256 1058 q 432 1035 381 1058 q 501 1010 481 1010 q 532 1018 522 1010 q 553 1051 543 1026 l 713 1051 q 663 856 713 931 q 529 781 611 781 q 436 803 482 781 q 365 825 390 825 m 422 726 q 707 622 590 726 q 824 353 824 517 q 707 85 824 189 q 422 -21 592 -21 q 138 85 253 -21 q 21 353 21 189 q 138 622 21 517 q 422 726 254 726 m 422 225 q 506 263 472 225 q 538 353 538 301 q 506 443 538 404 q 422 481 472 481 q 340 443 372 481 q 307 353 307 406 q 340 263 307 300 q 422 225 372 225 z "},"ö":{"ha":844,"x_min":21,"x_max":824,"o":"m 249 754 q 140 796 182 754 q 97 903 97 838 q 140 1007 97 964 q 249 1050 183 1050 q 358 1007 315 1050 q 401 903 401 964 q 358 796 401 838 q 249 754 314 754 m 596 754 q 488 796 529 754 q 444 903 444 838 q 488 1007 444 964 q 596 1050 531 1050 q 706 1007 663 1050 q 749 903 749 964 q 706 796 749 838 q 596 754 663 754 m 422 726 q 707 622 590 726 q 824 353 824 517 q 707 85 824 189 q 422 -21 592 -21 q 138 85 253 -21 q 21 353 21 189 q 138 622 21 517 q 422 726 254 726 m 422 225 q 506 263 472 225 q 538 353 538 301 q 506 443 538 404 q 422 481 472 481 q 340 443 372 481 q 307 353 307 406 q 340 263 307 300 q 422 225 372 225 z "},"÷":{"ha":778,"x_min":42,"x_max":736,"o":"m 389 868 q 482 829 444 868 q 519 738 519 790 q 483 644 519 683 q 389 607 446 607 q 296 644 331 607 q 258 738 258 682 q 296 829 258 790 q 389 868 333 868 m 736 347 l 42 347 l 42 569 l 736 569 l 736 347 m 389 307 q 482 268 444 307 q 519 176 519 229 q 483 83 519 122 q 389 46 446 46 q 296 83 331 46 q 258 176 258 121 q 296 268 258 229 q 389 307 333 307 z "},"ø":{"ha":844,"x_min":21,"x_max":824,"o":"m 743 583 q 824 353 824 486 q 707 85 824 189 q 422 -21 592 -21 q 199 39 296 -21 l 117 -43 l 28 46 l 103 121 q 21 353 21 219 q 138 622 21 517 q 422 726 254 726 q 647 665 546 726 l 719 738 l 808 649 l 743 583 m 310 328 l 457 475 q 422 481 444 481 q 340 443 372 481 q 307 353 307 406 l 310 328 m 422 225 q 506 263 472 225 q 538 353 538 301 q 536 376 538 371 l 390 231 q 422 225 401 225 z "},"ù":{"ha":864,"x_min":53,"x_max":815,"o":"m 306 788 l 115 1021 l 476 1021 l 588 788 l 306 788 m 815 0 l 544 0 l 517 76 q 310 -21 432 -21 q 121 57 189 -21 q 53 265 53 135 l 53 706 l 351 706 l 351 329 q 372 267 351 292 q 429 243 393 243 q 494 273 471 243 q 517 349 517 303 l 517 706 l 815 706 l 815 0 z "},"ú":{"ha":864,"x_min":53,"x_max":815,"o":"m 569 788 l 288 788 l 399 1021 l 760 1021 l 569 788 m 815 0 l 544 0 l 517 76 q 310 -21 432 -21 q 121 57 189 -21 q 53 265 53 135 l 53 706 l 351 706 l 351 329 q 372 267 351 292 q 429 243 393 243 q 494 273 471 243 q 517 349 517 303 l 517 706 l 815 706 l 815 0 z "},"û":{"ha":864,"x_min":53,"x_max":815,"o":"m 390 788 l 111 788 l 276 1021 l 589 1021 l 754 788 l 475 788 l 433 849 l 390 788 m 815 0 l 544 0 l 517 76 q 310 -21 432 -21 q 121 57 189 -21 q 53 265 53 135 l 53 706 l 351 706 l 351 329 q 372 267 351 292 q 429 243 393 243 q 494 273 471 243 q 517 349 517 303 l 517 706 l 815 706 l 815 0 z "},"ü":{"ha":864,"x_min":53,"x_max":815,"o":"m 260 754 q 151 796 193 754 q 108 903 108 838 q 151 1007 108 964 q 260 1050 194 1050 q 369 1007 326 1050 q 413 903 413 964 q 369 796 413 838 q 260 754 326 754 m 607 754 q 499 796 540 754 q 456 903 456 838 q 499 1007 456 964 q 607 1050 542 1050 q 717 1007 674 1050 q 760 903 760 964 q 717 796 760 838 q 607 754 674 754 m 815 0 l 544 0 l 517 76 q 310 -21 432 -21 q 121 57 189 -21 q 53 265 53 135 l 53 706 l 351 706 l 351 329 q 372 267 351 292 q 429 243 393 243 q 494 273 471 243 q 517 349 517 303 l 517 706 l 815 706 l 815 0 z "},"ý":{"ha":894,"x_min":0,"x_max":894,"o":"m 592 788 l 310 788 l 421 1021 l 782 1021 l 592 788 m 894 706 l 447 -333 l 138 -333 l 293 26 l 0 706 l 310 706 l 442 372 l 585 706 l 894 706 z "},"þ":{"ha":900,"x_min":49,"x_max":879,"o":"m 540 726 q 786 624 692 726 q 879 353 879 522 q 786 82 879 183 q 540 -21 692 -21 q 347 58 422 -21 l 347 -333 l 49 -333 l 49 1000 l 347 1000 l 347 647 q 540 726 422 726 m 464 225 q 549 263 518 225 q 579 353 579 299 q 549 443 579 407 q 464 481 518 481 q 381 443 413 481 q 347 353 347 406 q 381 263 347 300 q 464 225 413 225 z "},"ÿ":{"ha":894,"x_min":0,"x_max":894,"o":"m 282 754 q 174 796 215 754 q 131 903 131 838 q 174 1007 131 964 q 282 1050 217 1050 q 392 1007 349 1050 q 435 903 435 964 q 392 796 435 838 q 282 754 349 754 m 629 754 q 521 796 563 754 q 478 903 478 838 q 521 1007 478 964 q 629 1050 564 1050 q 739 1007 696 1050 q 782 903 782 964 q 739 796 782 838 q 629 754 696 754 m 894 706 l 447 -333 l 138 -333 l 293 26 l 0 706 l 310 706 l 442 372 l 585 706 l 894 706 z "},"Ā":{"ha":1075,"x_min":0,"x_max":1075,"o":"m 788 1013 l 290 1013 l 290 1229 l 788 1229 l 788 1013 m 1075 0 l 747 0 l 710 113 l 367 113 l 328 0 l 0 0 l 361 931 l 714 931 l 1075 0 m 625 363 l 539 615 l 453 363 l 625 363 z "},"ā":{"ha":799,"x_min":14,"x_max":757,"o":"m 656 788 l 158 788 l 158 1004 l 656 1004 l 656 788 m 408 726 q 667 647 575 726 q 757 421 757 565 l 757 0 l 467 0 l 467 44 q 265 -21 386 -21 q 83 43 151 -21 q 14 210 14 106 q 97 379 14 319 q 335 439 179 439 l 467 439 l 467 460 q 450 503 467 486 q 408 518 432 518 q 346 460 357 518 l 65 518 q 408 726 126 726 m 392 186 q 444 206 421 186 q 467 263 467 224 l 467 292 l 413 292 q 357 276 379 292 q 336 236 336 263 q 353 200 336 213 q 392 186 367 186 z "},"Ă":{"ha":1075,"x_min":0,"x_max":1075,"o":"m 539 992 q 340 1060 417 992 q 263 1236 263 1129 l 483 1236 q 499 1203 483 1218 q 539 1188 514 1188 q 582 1203 567 1188 q 596 1236 596 1217 l 815 1236 q 739 1060 815 1128 q 539 992 663 992 m 1075 0 l 747 0 l 710 113 l 367 113 l 328 0 l 0 0 l 361 931 l 714 931 l 1075 0 m 625 363 l 539 615 l 453 363 l 625 363 z "},"ă":{"ha":799,"x_min":14,"x_max":757,"o":"m 407 767 q 208 835 285 767 q 131 1011 131 904 l 351 1011 q 367 978 351 993 q 407 963 382 963 q 449 978 433 963 q 464 1011 464 993 l 683 1011 q 607 835 683 903 q 407 767 531 767 m 408 726 q 667 647 575 726 q 757 421 757 565 l 757 0 l 467 0 l 467 44 q 265 -21 386 -21 q 83 43 151 -21 q 14 210 14 106 q 97 379 14 319 q 335 439 179 439 l 467 439 l 467 460 q 450 503 467 486 q 408 518 432 518 q 346 460 357 518 l 65 518 q 408 726 126 726 m 392 186 q 444 206 421 186 q 467 263 467 224 l 467 292 l 413 292 q 357 276 379 292 q 336 236 336 263 q 353 200 336 213 q 392 186 367 186 z "},"Ą":{"ha":1075,"x_min":0,"x_max":1125,"o":"m 1125 -269 q 974 -304 1057 -304 q 854 -267 900 -304 q 807 -165 807 -228 q 890 0 807 -74 l 747 0 l 710 113 l 367 113 l 328 0 l 0 0 l 361 931 l 714 931 l 1075 0 l 1067 -8 l 1029 -47 q 1011 -71 1017 -60 q 1003 -93 1003 -83 q 1042 -125 1003 -125 q 1115 -112 1072 -125 l 1125 -269 m 625 363 l 539 615 l 453 363 l 625 363 z "},"ą":{"ha":799,"x_min":14,"x_max":807,"o":"m 807 -269 q 656 -304 739 -304 q 536 -267 582 -304 q 489 -165 489 -228 q 572 0 489 -74 l 467 0 l 467 44 q 265 -21 386 -21 q 83 43 151 -21 q 14 210 14 106 q 97 379 14 319 q 335 439 179 439 l 467 439 l 467 460 q 450 503 467 486 q 408 518 432 518 q 346 460 357 518 l 65 518 q 408 726 126 726 q 667 647 575 726 q 757 421 757 565 l 757 0 l 749 -8 l 711 -47 q 693 -71 699 -60 q 685 -93 685 -83 q 724 -125 685 -125 q 797 -112 754 -125 l 807 -269 m 392 186 q 444 206 421 186 q 467 263 467 224 l 467 292 l 413 292 q 357 276 379 292 q 336 236 336 263 q 353 200 336 213 q 392 186 367 186 z "},"Ć":{"ha":1065,"x_min":35,"x_max":1031,"o":"m 678 1013 l 396 1013 l 507 1246 l 868 1246 l 678 1013 m 1031 342 q 872 78 1004 176 q 542 -21 740 -21 q 182 121 328 -21 q 35 465 35 260 q 182 811 35 669 q 542 951 329 951 q 863 854 724 951 q 1029 597 1000 757 l 721 528 q 542 679 690 679 q 401 618 458 679 q 343 465 343 556 q 401 314 343 375 q 542 251 457 251 q 722 414 685 251 l 1031 342 z "},"ć":{"ha":814,"x_min":21,"x_max":793,"o":"m 556 788 l 274 788 l 385 1021 l 746 1021 l 556 788 m 793 276 q 669 61 774 142 q 419 -21 563 -21 q 138 85 251 -21 q 21 353 21 189 q 138 622 21 517 q 419 726 253 726 q 669 646 564 726 q 792 433 772 565 l 521 383 q 486 456 515 426 q 419 481 460 481 q 339 443 371 481 q 307 353 307 404 q 339 263 307 301 q 419 225 371 225 q 486 251 460 225 q 521 324 515 281 l 793 276 z "},"Ċ":{"ha":1065,"x_min":35,"x_max":1031,"o":"m 540 986 q 426 1031 471 986 q 382 1142 382 1075 q 428 1251 382 1206 q 540 1297 472 1297 q 654 1251 608 1297 q 700 1142 700 1206 q 656 1031 700 1075 q 540 986 608 986 m 1031 342 q 872 78 1004 176 q 542 -21 740 -21 q 182 121 328 -21 q 35 465 35 260 q 182 811 35 669 q 542 951 329 951 q 863 854 724 951 q 1029 597 1000 757 l 721 528 q 542 679 690 679 q 401 618 458 679 q 343 465 343 556 q 401 314 343 375 q 542 251 457 251 q 722 414 685 251 l 1031 342 z "},"ċ":{"ha":814,"x_min":21,"x_max":793,"o":"m 418 761 q 304 806 349 761 q 260 917 260 850 q 306 1026 260 981 q 418 1072 350 1072 q 532 1026 486 1072 q 578 917 578 981 q 533 806 578 850 q 418 761 486 761 m 793 276 q 669 61 774 142 q 419 -21 563 -21 q 138 85 251 -21 q 21 353 21 189 q 138 622 21 517 q 419 726 253 726 q 669 646 564 726 q 792 433 772 565 l 521 383 q 486 456 515 426 q 419 481 460 481 q 339 443 371 481 q 307 353 307 404 q 339 263 307 301 q 419 225 371 225 q 486 251 460 225 q 521 324 515 281 l 793 276 z "},"Č":{"ha":1065,"x_min":35,"x_max":1031,"o":"m 385 1013 l 219 1246 l 499 1246 l 542 1185 l 583 1246 l 863 1246 l 697 1013 l 385 1013 m 1031 342 q 872 78 1004 176 q 542 -21 740 -21 q 182 121 328 -21 q 35 465 35 260 q 182 811 35 669 q 542 951 329 951 q 863 854 724 951 q 1029 597 1000 757 l 721 528 q 542 679 690 679 q 401 618 458 679 q 343 465 343 556 q 401 314 343 375 q 542 251 457 251 q 722 414 685 251 l 1031 342 z "},"č":{"ha":814,"x_min":21,"x_max":793,"o":"m 263 788 l 97 1021 l 376 1021 l 419 960 l 461 1021 l 740 1021 l 575 788 l 263 788 m 793 276 q 669 61 774 142 q 419 -21 563 -21 q 138 85 251 -21 q 21 353 21 189 q 138 622 21 517 q 419 726 253 726 q 669 646 564 726 q 792 433 772 565 l 521 383 q 486 456 515 426 q 419 481 460 481 q 339 443 371 481 q 307 353 307 404 q 339 263 307 301 q 419 225 371 225 q 486 251 460 225 q 521 324 515 281 l 793 276 z "},"Ď":{"ha":1007,"x_min":49,"x_max":972,"o":"m 332 1013 l 167 1246 l 446 1246 l 489 1185 l 531 1246 l 810 1246 l 644 1013 l 332 1013 m 467 931 q 833 801 694 931 q 972 465 972 672 q 833 129 972 258 q 467 0 694 0 l 49 0 l 49 931 l 467 931 m 439 253 q 601 313 540 253 q 663 465 663 374 q 601 618 663 557 q 439 678 540 678 l 356 678 l 356 253 l 439 253 z "},"ď":{"ha":900,"x_min":21,"x_max":1169,"o":"m 851 1069 l 851 0 l 553 0 l 553 58 q 360 -21 478 -21 q 115 82 210 -21 q 21 353 21 185 q 115 624 21 521 q 360 726 210 726 q 553 647 478 726 l 553 1069 l 851 1069 m 1169 1069 l 1104 792 l 913 792 l 913 1069 l 1169 1069 m 436 225 q 521 263 488 225 q 553 353 553 301 q 521 443 553 404 q 436 481 488 481 q 353 443 385 481 q 321 353 321 404 q 353 263 321 301 q 436 225 385 225 z "},"Đ":{"ha":1014,"x_min":14,"x_max":993,"o":"m 488 931 q 854 801 714 931 q 993 465 993 672 q 854 129 993 258 q 488 0 715 0 l 69 0 l 69 333 l 14 333 l 14 592 l 69 592 l 69 931 l 488 931 m 460 253 q 622 313 561 253 q 683 465 683 374 q 622 618 683 557 q 460 678 561 678 l 376 678 l 376 592 l 479 592 l 479 333 l 376 333 l 376 253 l 460 253 z "},"đ":{"ha":907,"x_min":21,"x_max":893,"o":"m 851 740 l 851 0 l 553 0 l 553 58 q 360 -21 478 -21 q 115 82 210 -21 q 21 353 21 185 q 115 624 21 521 q 360 726 210 726 q 553 647 478 726 l 553 740 l 396 740 l 396 943 l 553 943 l 553 1069 l 851 1069 l 851 943 l 893 943 l 893 740 l 851 740 m 436 225 q 521 263 488 225 q 553 353 553 301 q 521 443 553 404 q 436 481 488 481 q 353 443 385 481 q 321 353 321 404 q 353 263 321 301 q 436 225 385 225 z "},"Ē":{"ha":844,"x_min":49,"x_max":821,"o":"m 671 1013 l 174 1013 l 174 1229 l 671 1229 l 671 1013 m 821 251 l 807 0 l 49 0 l 49 931 l 800 931 l 800 679 l 356 679 l 356 576 l 790 576 l 790 354 l 356 354 l 356 251 l 821 251 z "},"ē":{"ha":808,"x_min":21,"x_max":788,"o":"m 664 788 l 167 788 l 167 1004 l 664 1004 l 664 788 m 311 282 q 415 200 336 200 q 478 215 450 200 q 515 257 506 231 l 781 206 q 644 36 739 93 q 415 -21 547 -21 q 136 85 250 -21 q 21 353 21 189 q 136 622 21 515 q 414 726 251 726 q 686 624 583 726 q 788 325 788 521 l 788 282 l 311 282 m 414 503 q 313 432 340 503 l 504 432 q 469 485 493 467 q 414 503 446 503 z "},"Ė":{"ha":844,"x_min":49,"x_max":821,"o":"m 421 986 q 307 1031 351 986 q 263 1142 263 1075 q 308 1251 263 1206 q 421 1297 351 1297 q 535 1251 489 1297 q 581 1142 581 1206 q 536 1031 581 1075 q 421 986 489 986 m 821 251 l 807 0 l 49 0 l 49 931 l 800 931 l 800 679 l 356 679 l 356 576 l 790 576 l 790 354 l 356 354 l 356 251 l 821 251 z "},"ė":{"ha":808,"x_min":21,"x_max":788,"o":"m 414 761 q 300 806 344 761 q 256 917 256 850 q 301 1026 256 981 q 414 1072 346 1072 q 528 1026 482 1072 q 574 917 574 981 q 529 806 574 850 q 414 761 482 761 m 311 282 q 415 200 336 200 q 478 215 450 200 q 515 257 506 231 l 781 206 q 644 36 739 93 q 415 -21 547 -21 q 136 85 250 -21 q 21 353 21 189 q 136 622 21 515 q 414 726 251 726 q 686 624 583 726 q 788 325 788 521 l 788 282 l 311 282 m 414 503 q 313 432 340 503 l 504 432 q 469 485 493 467 q 414 503 446 503 z "},"Ę":{"ha":844,"x_min":49,"x_max":821,"o":"m 740 -8 l 703 -47 q 685 -71 690 -60 q 676 -93 676 -83 q 715 -125 676 -125 q 789 -112 746 -125 l 799 -269 q 647 -304 731 -304 q 528 -267 574 -304 q 481 -165 481 -228 q 564 0 481 -74 l 49 0 l 49 931 l 800 931 l 800 679 l 356 679 l 356 576 l 790 576 l 790 354 l 356 354 l 356 251 l 821 251 l 807 0 l 749 0 l 740 -8 z "},"ę":{"ha":808,"x_min":21,"x_max":788,"o":"m 310 282 q 415 200 333 200 q 515 257 483 200 l 781 206 q 678 68 753 143 l 660 50 l 640 31 l 625 11 q 608 -11 611 -4 q 597 -32 603 -21 q 589 -57 592 -44 q 586 -82 586 -71 q 626 -125 586 -125 q 699 -112 654 -125 l 708 -269 q 557 -304 640 -304 q 433 -268 482 -304 q 386 -165 386 -231 q 453 -19 386 -94 q 415 -21 444 -21 q 136 85 250 -21 q 21 353 21 189 q 136 622 21 515 q 415 726 251 726 q 686 624 583 726 q 788 325 788 521 l 788 282 l 310 282 m 503 432 q 408 503 485 503 q 349 483 376 503 q 308 432 321 464 l 503 432 z "},"Ě":{"ha":844,"x_min":49,"x_max":821,"o":"m 265 1013 l 100 1246 l 379 1246 l 422 1185 l 464 1246 l 743 1246 l 578 1013 l 265 1013 m 821 251 l 807 0 l 49 0 l 49 931 l 800 931 l 800 679 l 356 679 l 356 576 l 790 576 l 790 354 l 356 354 l 356 251 l 821 251 z "},"ě":{"ha":808,"x_min":21,"x_max":788,"o":"m 258 788 l 93 1021 l 372 1021 l 415 960 l 457 1021 l 736 1021 l 571 788 l 258 788 m 311 282 q 415 200 336 200 q 478 215 450 200 q 515 257 506 231 l 781 206 q 644 36 739 93 q 415 -21 547 -21 q 136 85 250 -21 q 21 353 21 189 q 136 622 21 515 q 414 726 251 726 q 686 624 583 726 q 788 325 788 521 l 788 282 l 311 282 m 414 503 q 313 432 340 503 l 504 432 q 469 485 493 467 q 414 503 446 503 z "},"Ğ":{"ha":1086,"x_min":35,"x_max":1051,"o":"m 549 992 q 406 1022 468 992 q 308 1108 343 1053 q 272 1236 272 1164 l 493 1236 q 509 1201 493 1215 q 549 1188 525 1188 q 590 1201 575 1188 q 606 1236 606 1215 l 825 1236 q 789 1107 825 1163 q 690 1022 753 1051 q 549 992 628 992 m 1044 561 q 1051 465 1051 489 q 988 209 1051 319 q 809 39 924 99 q 549 -21 694 -21 q 288 44 406 -21 q 103 219 171 108 q 35 465 35 331 q 103 713 35 601 q 289 888 171 824 q 549 951 407 951 q 842 878 714 951 q 1017 674 969 806 l 694 601 q 549 679 654 679 q 401 619 458 679 q 343 465 343 558 q 401 313 343 374 q 549 251 458 251 q 711 319 656 251 l 579 319 l 579 561 l 1044 561 z "},"ğ":{"ha":900,"x_min":21,"x_max":851,"o":"m 464 767 q 265 835 342 767 q 188 1011 188 904 l 408 1011 q 424 978 408 993 q 464 963 439 963 q 507 978 492 963 q 521 1011 521 992 l 740 1011 q 664 835 740 903 q 464 767 588 767 m 851 -10 q 788 -193 851 -117 q 624 -310 722 -271 q 406 -347 524 -347 q 33 -147 149 -347 l 289 -60 q 347 -107 325 -97 q 403 -117 371 -117 q 508 -87 463 -117 q 553 4 553 -56 l 553 58 q 360 -21 478 -21 q 115 82 210 -21 q 21 353 21 185 q 115 624 21 521 q 360 726 210 726 q 553 647 478 726 l 553 706 l 851 706 l 851 -10 m 436 225 q 521 263 488 225 q 553 353 553 301 q 521 443 553 404 q 436 481 488 481 q 353 443 385 481 q 321 353 321 404 q 353 263 321 301 q 436 225 385 225 z "},"Ġ":{"ha":1086,"x_min":35,"x_max":1051,"o":"m 547 986 q 433 1031 478 986 q 389 1142 389 1075 q 435 1251 389 1206 q 547 1297 479 1297 q 661 1251 615 1297 q 707 1142 707 1206 q 663 1031 707 1075 q 547 986 615 986 m 1044 561 q 1051 465 1051 489 q 911 114 1051 247 q 549 -21 772 -21 q 183 121 332 -21 q 35 465 35 261 q 183 811 35 669 q 549 951 332 951 q 846 876 718 951 q 1017 674 971 801 l 694 601 q 549 679 654 679 q 401 618 458 679 q 343 465 343 558 q 401 313 343 374 q 549 251 458 251 q 711 319 656 251 l 524 319 l 524 561 l 1044 561 z "},"ġ":{"ha":900,"x_min":21,"x_max":851,"o":"m 463 761 q 349 806 393 761 q 304 917 304 850 q 350 1026 304 981 q 463 1072 394 1072 q 576 1026 531 1072 q 622 917 622 981 q 578 806 622 850 q 463 761 531 761 m 851 -10 q 788 -193 851 -117 q 624 -310 722 -271 q 406 -347 524 -347 q 33 -147 149 -347 l 289 -60 q 347 -107 325 -97 q 403 -117 371 -117 q 508 -87 463 -117 q 553 4 553 -56 l 553 58 q 360 -21 478 -21 q 115 82 210 -21 q 21 353 21 185 q 115 624 21 521 q 360 726 210 726 q 553 647 478 726 l 553 706 l 851 706 l 851 -10 m 436 225 q 521 263 488 225 q 553 353 553 301 q 521 443 553 404 q 436 481 488 481 q 353 443 385 481 q 321 353 321 404 q 353 263 321 301 q 436 225 385 225 z "},"Ģ":{"ha":1086,"x_min":35,"x_max":1051,"o":"m 1044 561 q 1051 465 1051 489 q 911 114 1051 247 q 549 -21 772 -21 q 183 121 332 -21 q 35 465 35 261 q 183 811 35 669 q 549 951 332 951 q 846 876 718 951 q 1017 674 971 801 l 694 601 q 549 679 654 679 q 401 618 458 679 q 343 465 343 558 q 401 313 343 374 q 549 251 458 251 q 711 319 656 251 l 524 319 l 524 561 l 1044 561 m 404 -62 l 683 -62 l 540 -299 l 339 -299 l 404 -62 z "},"ģ":{"ha":883,"x_min":21,"x_max":851,"o":"m 590 783 l 311 783 l 454 1019 l 656 1019 l 590 783 m 851 -10 q 788 -193 851 -117 q 624 -310 722 -271 q 406 -347 524 -347 q 33 -147 149 -347 l 289 -60 q 347 -107 325 -97 q 403 -117 371 -117 q 508 -87 463 -117 q 553 4 553 -56 l 553 58 q 360 -21 478 -21 q 115 82 210 -21 q 21 353 21 185 q 115 624 21 521 q 360 726 210 726 q 553 647 478 726 l 553 706 l 851 706 l 851 -10 m 436 225 q 521 263 488 225 q 553 353 553 301 q 521 443 553 404 q 436 481 488 481 q 353 443 385 481 q 321 353 321 404 q 353 263 321 301 q 436 225 385 225 z "},"Ħ":{"ha":1040,"x_min":14,"x_max":1026,"o":"m 1026 593 l 971 593 l 971 0 l 664 0 l 664 267 l 376 267 l 376 0 l 69 0 l 69 593 l 14 593 l 14 810 l 69 810 l 69 931 l 376 931 l 376 810 l 664 810 l 664 931 l 971 931 l 971 810 l 1026 810 l 1026 593 m 664 593 l 376 593 l 376 497 l 664 497 l 664 593 z "},"ħ":{"ha":885,"x_min":14,"x_max":832,"o":"m 576 726 q 763 650 694 726 q 832 440 832 572 l 832 0 l 533 0 l 533 376 q 513 439 533 417 q 454 463 489 463 q 392 433 415 463 q 368 357 368 403 l 368 0 l 69 0 l 69 754 l 14 754 l 14 943 l 69 943 l 69 1069 l 368 1069 l 368 943 l 511 943 l 511 754 l 368 754 l 368 629 q 576 726 453 726 z "},"Ī":{"ha":640,"x_min":28,"x_max":613,"o":"m 569 1013 l 72 1013 l 72 1229 l 569 1229 l 569 1013 m 474 672 l 474 258 l 613 258 l 613 0 l 28 0 l 28 258 l 167 258 l 167 672 l 28 672 l 28 931 l 613 931 l 613 672 l 474 672 z "},"ī":{"ha":415,"x_min":-40,"x_max":457,"o":"m 457 788 l -40 788 l -40 1004 l 457 1004 l 457 788 m 357 0 l 58 0 l 58 706 l 357 706 l 357 0 z "},"Į":{"ha":640,"x_min":28,"x_max":613,"o":"m 474 258 l 613 258 l 613 0 l 474 0 l 465 -8 l 428 -47 q 410 -71 415 -60 q 401 -93 401 -83 q 440 -125 401 -125 q 514 -112 471 -125 l 524 -269 q 372 -304 456 -304 q 253 -267 299 -304 q 206 -165 206 -228 q 289 0 206 -74 l 28 0 l 28 258 l 167 258 l 167 672 l 28 672 l 28 931 l 613 931 l 613 672 l 474 672 l 474 258 z "},"į":{"ha":415,"x_min":49,"x_max":407,"o":"m 207 761 q 93 806 138 761 q 49 917 49 850 q 94 1026 49 981 q 207 1072 138 1072 q 321 1026 275 1072 q 367 917 367 981 q 322 806 367 850 q 207 761 275 761 m 407 -269 q 256 -304 339 -304 q 136 -267 182 -304 q 89 -165 89 -228 q 172 0 89 -74 l 58 0 l 58 706 l 357 706 l 357 0 l 349 -8 l 311 -47 q 293 -71 299 -60 q 285 -93 285 -83 q 324 -125 285 -125 q 397 -112 354 -125 l 407 -269 z "},"İ":{"ha":640,"x_min":28,"x_max":613,"o":"m 319 986 q 206 1031 250 986 q 161 1142 161 1075 q 207 1251 161 1206 q 319 1297 250 1297 q 433 1251 388 1297 q 479 1142 479 1206 q 435 1031 479 1075 q 319 986 388 986 m 474 672 l 474 258 l 613 258 l 613 0 l 28 0 l 28 258 l 167 258 l 167 672 l 28 672 l 28 931 l 613 931 l 613 672 l 474 672 z "},"ı":{"ha":415,"x_min":58,"x_max":357,"o":"m 357 0 l 58 0 l 58 706 l 357 706 l 357 0 z "},"Ĳ":{"ha":1518,"x_min":28,"x_max":1463,"o":"m 613 931 l 613 672 l 474 672 l 474 258 l 613 258 l 613 0 l 28 0 l 28 258 l 167 258 l 167 672 l 28 672 l 28 931 l 613 931 m 1463 346 q 1351 81 1463 181 q 1058 -21 1242 -21 q 782 68 888 -21 q 657 310 676 158 l 964 369 q 993 279 969 307 q 1058 251 1017 251 q 1128 276 1101 251 q 1154 346 1154 301 l 1154 672 l 863 672 l 863 931 l 1463 931 l 1463 346 z "},"ĳ":{"ha":863,"x_min":49,"x_max":814,"o":"m 211 1068 q 329 1022 281 1068 q 375 910 375 975 q 329 797 375 842 q 211 751 282 751 q 94 797 140 751 q 49 910 49 842 q 94 1022 49 975 q 211 1068 140 1068 m 650 1068 q 768 1022 721 1068 q 814 910 814 974 q 768 797 814 842 q 650 751 721 751 q 533 797 579 751 q 488 910 488 842 q 533 1022 488 975 q 650 1068 579 1068 m 361 0 l 63 0 l 63 706 l 361 706 l 361 0 m 382 -108 q 458 -112 411 -112 q 501 -56 501 -112 l 501 706 l 800 706 l 800 -79 q 729 -274 800 -201 q 539 -347 656 -347 q 382 -311 458 -347 l 382 -108 z "},"Ķ":{"ha":1004,"x_min":49,"x_max":1018,"o":"m 1018 0 l 651 0 l 464 285 l 356 151 l 356 0 l 49 0 l 49 931 l 356 931 l 356 589 l 643 931 l 990 931 l 663 528 l 1018 0 m 364 -62 l 643 -62 l 500 -299 l 299 -299 l 364 -62 z "},"ķ":{"ha":876,"x_min":49,"x_max":890,"o":"m 890 0 l 529 0 l 425 174 l 347 79 l 347 0 l 49 0 l 49 1069 l 347 1069 l 347 503 l 517 706 l 868 706 l 631 421 l 890 0 m 307 -62 l 586 -62 l 443 -299 l 242 -299 l 307 -62 z "},"Ĺ":{"ha":800,"x_min":49,"x_max":772,"o":"m 349 1013 l 67 1013 l 178 1246 l 539 1246 l 349 1013 m 772 258 l 772 0 l 49 0 l 49 931 l 356 931 l 356 258 l 772 258 z "},"ĺ":{"ha":497,"x_min":46,"x_max":533,"o":"m 343 1151 l 61 1151 l 172 1385 l 533 1385 l 343 1151 m 344 274 q 356 240 344 253 q 388 228 368 228 q 439 236 404 229 q 497 251 474 243 l 497 35 q 402 -8 442 4 q 307 -21 363 -21 q 117 53 188 -21 q 46 247 46 126 l 46 1069 l 344 1069 l 344 274 z "},"Ļ":{"ha":800,"x_min":49,"x_max":772,"o":"m 772 258 l 772 0 l 49 0 l 49 931 l 356 931 l 356 258 l 772 258 m 290 -62 l 569 -62 l 426 -299 l 225 -299 l 290 -62 z "},"ļ":{"ha":497,"x_min":46,"x_max":497,"o":"m 344 274 q 356 240 344 253 q 388 228 368 228 q 439 236 404 229 q 497 251 474 243 l 497 35 q 402 -8 442 4 q 307 -21 363 -21 q 117 53 188 -21 q 46 247 46 126 l 46 1069 l 344 1069 l 344 274 m 65 -299 l 131 -62 l 410 -62 l 267 -299 l 65 -299 z "},"Ľ":{"ha":800,"x_min":49,"x_max":772,"o":"m 772 258 l 772 0 l 49 0 l 49 931 l 356 931 l 356 258 l 772 258 m 644 653 l 453 653 l 453 931 l 710 931 l 644 653 z "},"ľ":{"ha":497,"x_min":46,"x_max":664,"o":"m 344 274 q 356 240 344 253 q 388 228 368 228 q 439 236 404 229 q 497 251 474 243 l 497 35 q 402 -8 442 4 q 307 -21 363 -21 q 117 53 188 -21 q 46 247 46 126 l 46 1069 l 344 1069 l 344 274 m 599 792 l 407 792 l 407 1069 l 664 1069 l 599 792 z "},"Ŀ":{"ha":842,"x_min":49,"x_max":772,"o":"m 772 258 l 772 0 l 49 0 l 49 931 l 356 931 l 356 258 l 772 258 m 594 364 q 481 408 525 364 q 436 519 436 453 q 482 629 436 583 q 594 675 526 675 q 708 629 663 675 q 754 519 754 583 q 710 408 754 453 q 594 364 663 364 z "},"ŀ":{"ha":699,"x_min":46,"x_max":699,"o":"m 344 274 q 356 240 344 253 q 388 228 368 228 q 439 236 404 229 q 497 251 474 243 l 497 35 q 402 -8 442 4 q 307 -21 363 -21 q 117 53 188 -21 q 46 247 46 126 l 46 1069 l 344 1069 l 344 274 m 539 675 q 653 629 607 675 q 699 519 699 583 q 654 408 699 453 q 539 364 607 364 q 425 408 469 364 q 381 519 381 453 q 426 629 381 583 q 539 675 471 675 z "},"Ł":{"ha":849,"x_min":14,"x_max":800,"o":"m 800 258 l 800 0 l 76 0 l 76 314 l 14 286 l 14 532 l 76 560 l 76 931 l 383 931 l 383 693 l 493 740 l 493 494 l 383 447 l 383 258 l 800 258 z "},"ł":{"ha":521,"x_min":14,"x_max":521,"o":"m 14 286 l 14 560 l 69 588 l 69 1069 l 368 1069 l 368 733 l 438 768 l 438 494 l 368 460 l 368 274 q 382 238 368 251 q 411 228 396 225 l 428 231 l 521 251 l 521 35 q 422 -10 456 0 q 331 -21 388 -21 q 141 53 213 -21 q 69 247 69 126 l 69 314 l 14 286 z "},"Ń":{"ha":1039,"x_min":49,"x_max":990,"o":"m 656 1013 l 374 1013 l 485 1246 l 846 1246 l 656 1013 m 990 931 l 990 0 l 739 0 l 356 419 l 356 0 l 49 0 l 49 931 l 300 931 l 683 492 l 683 931 l 990 931 z "},"ń":{"ha":864,"x_min":49,"x_max":811,"o":"m 568 788 l 286 788 l 397 1021 l 758 1021 l 568 788 m 554 726 q 743 649 675 726 q 811 440 811 571 l 811 0 l 513 0 l 513 376 q 492 439 513 415 q 435 463 471 463 q 370 433 393 463 q 347 357 347 403 l 347 0 l 49 0 l 49 706 l 319 706 l 347 629 q 554 726 432 726 z "},"Ņ":{"ha":1039,"x_min":49,"x_max":990,"o":"m 990 931 l 990 0 l 739 0 l 356 419 l 356 0 l 49 0 l 49 931 l 300 931 l 683 492 l 683 931 l 990 931 m 403 -62 l 682 -62 l 539 -299 l 338 -299 l 403 -62 z "},"ņ":{"ha":864,"x_min":49,"x_max":811,"o":"m 554 726 q 743 649 675 726 q 811 440 811 571 l 811 0 l 513 0 l 513 376 q 492 439 513 415 q 435 463 471 463 q 370 433 393 463 q 347 357 347 403 l 347 0 l 49 0 l 49 706 l 319 706 l 347 629 q 554 726 432 726 m 286 -62 l 565 -62 l 422 -299 l 221 -299 l 286 -62 z "},"Ň":{"ha":1039,"x_min":49,"x_max":990,"o":"m 363 1013 l 197 1246 l 476 1246 l 519 1185 l 561 1246 l 840 1246 l 675 1013 l 363 1013 m 990 931 l 990 0 l 739 0 l 356 419 l 356 0 l 49 0 l 49 931 l 300 931 l 683 492 l 683 931 l 990 931 z "},"ň":{"ha":864,"x_min":49,"x_max":811,"o":"m 275 788 l 110 1021 l 389 1021 l 432 960 l 474 1021 l 753 1021 l 588 788 l 275 788 m 554 726 q 743 649 675 726 q 811 440 811 571 l 811 0 l 513 0 l 513 376 q 492 439 513 415 q 435 463 471 463 q 370 433 393 463 q 347 357 347 403 l 347 0 l 49 0 l 49 706 l 319 706 l 347 629 q 554 726 432 726 z "},"Ŋ":{"ha":1011,"x_min":49,"x_max":990,"o":"m 990 -125 q 921 -290 990 -233 q 729 -347 849 -347 q 539 -319 653 -347 l 567 -89 q 649 -99 631 -99 q 692 -56 692 -99 l 692 51 l 356 419 l 356 0 l 49 0 l 49 931 l 300 931 l 683 492 l 683 931 l 990 931 l 990 -125 z "},"ŋ":{"ha":864,"x_min":49,"x_max":811,"o":"m 554 726 q 743 649 675 726 q 811 440 811 571 l 811 -125 q 740 -291 811 -235 q 550 -347 669 -347 q 360 -319 474 -347 l 388 -103 q 469 -112 451 -112 q 513 -69 513 -112 l 513 376 q 492 439 513 415 q 435 463 471 463 q 370 433 393 463 q 347 357 347 403 l 347 0 l 49 0 l 49 706 l 319 706 l 347 629 q 554 726 432 726 z "},"Ō":{"ha":1083,"x_min":35,"x_max":1049,"o":"m 790 1013 l 293 1013 l 293 1229 l 790 1229 l 790 1013 m 542 951 q 903 811 754 951 q 1049 465 1049 669 q 903 121 1049 261 q 542 -21 756 -21 q 182 121 328 -21 q 35 465 35 260 q 182 811 35 669 q 542 951 329 951 m 542 251 q 685 313 628 251 q 740 465 740 372 q 685 618 740 558 q 542 679 628 679 q 399 618 456 679 q 343 465 343 558 q 399 313 343 372 q 542 251 456 251 z "},"ō":{"ha":844,"x_min":21,"x_max":824,"o":"m 671 788 l 174 788 l 174 1004 l 671 1004 l 671 788 m 422 726 q 707 622 590 726 q 824 353 824 517 q 707 85 824 189 q 422 -21 592 -21 q 138 85 253 -21 q 21 353 21 189 q 138 622 21 517 q 422 726 254 726 m 422 225 q 506 263 472 225 q 538 353 538 301 q 506 443 538 404 q 422 481 472 481 q 340 443 372 481 q 307 353 307 406 q 340 263 307 300 q 422 225 372 225 z "},"Ő":{"ha":1083,"x_min":35,"x_max":1049,"o":"m 493 1013 l 253 1013 l 378 1246 l 675 1246 l 493 1013 m 572 1013 l 697 1246 l 1008 1246 l 813 1013 l 572 1013 m 542 951 q 903 811 754 951 q 1049 465 1049 669 q 903 121 1049 261 q 542 -21 756 -21 q 182 121 328 -21 q 35 465 35 260 q 182 811 35 669 q 542 951 329 951 m 542 251 q 685 313 628 251 q 740 465 740 372 q 685 618 740 558 q 542 679 628 679 q 399 618 456 679 q 343 465 343 558 q 399 313 343 372 q 542 251 456 251 z "},"ő":{"ha":844,"x_min":21,"x_max":889,"o":"m 374 788 l 133 788 l 258 1021 l 556 1021 l 374 788 m 453 788 l 578 1021 l 889 1021 l 693 788 l 453 788 m 422 726 q 707 622 590 726 q 824 353 824 517 q 707 85 824 189 q 422 -21 592 -21 q 138 85 253 -21 q 21 353 21 189 q 138 622 21 517 q 422 726 254 726 m 422 225 q 506 263 472 225 q 538 353 538 301 q 506 443 538 404 q 422 481 472 481 q 340 443 372 481 q 307 353 307 406 q 340 263 307 300 q 422 225 372 225 z "},"Œ":{"ha":1428,"x_min":35,"x_max":1390,"o":"m 583 0 q 186 131 335 0 q 35 465 35 260 q 186 801 35 671 q 583 931 336 931 l 1383 931 l 1383 679 l 939 679 l 939 576 l 1346 576 l 1346 354 l 939 354 l 939 251 l 1390 251 l 1390 0 l 583 0 m 583 679 q 404 621 465 679 q 343 465 343 560 q 404 311 343 369 q 583 251 464 251 l 632 251 l 632 679 l 583 679 z "},"œ":{"ha":1325,"x_min":21,"x_max":1304,"o":"m 828 282 q 932 200 853 200 q 994 215 967 200 q 1032 257 1021 229 l 1297 206 q 1161 36 1256 93 q 932 -21 1064 -21 q 679 61 789 -21 q 422 -21 568 -21 q 138 85 253 -21 q 21 353 21 189 q 138 622 21 517 q 422 726 254 726 q 679 644 568 726 q 931 726 786 726 q 1203 624 1100 726 q 1304 325 1304 521 l 1304 282 l 828 282 m 931 503 q 829 432 857 503 l 1021 432 q 986 485 1010 467 q 931 503 963 503 m 422 225 q 506 263 472 225 q 538 353 538 301 q 506 443 538 404 q 422 481 472 481 q 340 443 372 481 q 307 353 307 406 q 340 263 307 300 q 422 225 372 225 z "},"Ŕ":{"ha":956,"x_min":49,"x_max":956,"o":"m 585 1013 l 303 1013 l 414 1246 l 775 1246 l 585 1013 m 589 0 l 360 275 l 356 275 l 356 0 l 49 0 l 49 931 l 569 931 q 814 842 721 931 q 906 608 906 753 q 851 419 906 501 q 700 303 797 338 l 956 0 l 589 0 m 494 507 q 576 532 546 507 q 606 599 606 557 q 576 661 606 639 q 494 685 544 685 l 356 685 l 356 507 l 494 507 z "},"ŕ":{"ha":628,"x_min":49,"x_max":668,"o":"m 478 788 l 196 788 l 307 1021 l 668 1021 l 478 788 m 347 560 q 572 714 417 714 q 624 710 597 714 l 614 396 l 572 396 q 401 352 454 396 q 347 207 347 308 l 347 0 l 49 0 l 49 706 l 319 706 l 347 560 z "},"Ŗ":{"ha":956,"x_min":49,"x_max":956,"o":"m 589 0 l 360 275 l 356 275 l 356 0 l 49 0 l 49 931 l 569 931 q 814 842 721 931 q 906 608 906 753 q 851 419 906 501 q 700 303 797 338 l 956 0 l 589 0 m 494 507 q 576 532 546 507 q 606 599 606 557 q 576 661 606 639 q 494 685 544 685 l 356 685 l 356 507 l 494 507 m 338 -62 l 617 -62 l 474 -299 l 272 -299 l 338 -62 z "},"ŗ":{"ha":628,"x_min":-3,"x_max":624,"o":"m 572 714 q 624 710 597 714 l 614 396 l 572 396 q 401 352 454 396 q 347 207 347 308 l 347 0 l 49 0 l 49 706 l 319 706 l 347 560 q 572 714 417 714 m 63 -62 l 342 -62 l 199 -299 l -3 -299 l 63 -62 z "},"Ř":{"ha":956,"x_min":49,"x_max":956,"o":"m 292 1013 l 126 1246 l 406 1246 l 449 1185 l 490 1246 l 769 1246 l 604 1013 l 292 1013 m 589 0 l 360 275 l 356 275 l 356 0 l 49 0 l 49 931 l 569 931 q 814 842 721 931 q 906 608 906 753 q 851 419 906 501 q 700 303 797 338 l 956 0 l 589 0 m 494 507 q 576 532 546 507 q 606 599 606 557 q 576 661 606 639 q 494 685 544 685 l 356 685 l 356 507 l 494 507 z "},"ř":{"ha":628,"x_min":19,"x_max":663,"o":"m 185 788 l 19 1021 l 299 1021 l 342 960 l 383 1021 l 663 1021 l 497 788 l 185 788 m 347 560 q 572 714 417 714 q 624 710 597 714 l 614 396 l 572 396 q 406 356 465 396 q 347 207 347 317 l 347 0 l 49 0 l 49 706 l 347 706 l 347 560 z "},"Ś":{"ha":911,"x_min":24,"x_max":885,"o":"m 593 1013 l 311 1013 l 422 1246 l 783 1246 l 593 1013 m 476 951 q 755 883 644 951 q 885 679 865 815 l 586 619 q 469 722 565 722 q 417 708 438 722 q 396 668 397 694 q 431 625 396 635 l 611 578 q 810 481 743 544 q 878 310 878 417 q 820 130 878 204 q 667 17 763 56 q 457 -21 571 -21 q 250 13 344 -21 q 95 114 156 47 q 24 272 35 181 l 336 329 q 465 219 361 219 q 549 275 549 219 q 508 315 549 304 l 319 365 q 133 457 197 394 q 68 625 68 519 q 123 805 68 732 q 270 915 178 878 q 476 951 363 951 z "},"ś":{"ha":747,"x_min":15,"x_max":722,"o":"m 522 788 l 240 788 l 351 1021 l 713 1021 l 522 788 m 297 236 q 329 195 306 210 q 381 181 353 181 q 436 210 436 181 q 423 229 436 224 q 381 239 410 235 l 242 261 q 33 465 33 294 q 80 609 33 550 q 204 697 126 668 q 372 726 282 726 q 717 536 664 726 l 453 485 q 424 524 447 508 q 371 540 400 540 q 319 513 319 540 q 354 485 319 490 l 513 456 q 722 231 722 418 q 674 90 722 146 q 546 6 625 33 q 372 -21 467 -21 q 132 29 225 -21 q 15 181 38 79 l 297 236 z "},"Ş":{"ha":911,"x_min":28,"x_max":889,"o":"m 881 310 q 790 91 881 174 q 551 -14 699 8 l 493 -222 l 189 -222 l 339 -10 q 126 88 211 14 q 28 272 40 161 l 339 329 q 468 219 364 219 q 553 272 550 219 q 513 315 553 306 l 324 365 q 136 457 200 394 q 72 625 72 519 q 126 806 72 732 q 274 915 181 879 q 481 951 367 951 q 759 884 649 951 q 889 679 869 817 l 589 619 q 474 722 569 722 q 420 708 440 722 q 400 664 400 693 q 435 625 400 635 l 614 578 q 813 481 746 544 q 881 310 881 417 z "},"ş":{"ha":747,"x_min":18,"x_max":725,"o":"m 725 231 q 656 70 725 132 q 479 -11 588 8 l 421 -222 l 117 -222 l 264 -12 q 18 181 56 21 l 301 236 q 332 195 308 210 q 383 181 356 181 q 440 208 438 181 q 428 229 440 224 q 385 239 415 235 l 244 261 q 89 328 140 278 q 38 465 38 379 q 84 608 38 549 q 208 697 131 667 q 376 726 285 726 q 719 536 667 726 l 457 485 q 427 524 450 508 q 374 540 404 540 q 324 511 324 540 q 358 485 324 492 l 515 456 q 725 231 725 418 z "},"Š":{"ha":911,"x_min":24,"x_max":885,"o":"m 300 1013 l 135 1246 l 414 1246 l 457 1185 l 499 1246 l 778 1246 l 613 1013 l 300 1013 m 611 578 q 810 481 743 544 q 878 310 878 417 q 820 130 878 204 q 667 17 763 56 q 457 -21 571 -21 q 250 13 344 -21 q 95 114 156 47 q 24 272 35 181 l 336 329 q 465 219 361 219 q 549 275 549 219 q 508 315 549 304 l 319 365 q 133 457 197 394 q 68 625 68 519 q 123 805 68 732 q 270 915 178 878 q 476 951 363 951 q 756 884 646 951 q 885 679 865 817 l 586 619 q 469 722 565 722 q 417 708 438 722 q 396 668 397 694 q 431 625 396 635 l 611 578 z "},"š":{"ha":747,"x_min":15,"x_max":722,"o":"m 229 788 l 64 1021 l 343 1021 l 386 960 l 428 1021 l 707 1021 l 542 788 l 229 788 m 513 456 q 722 231 722 418 q 674 90 722 146 q 546 6 625 33 q 372 -21 467 -21 q 135 27 232 -21 q 15 181 39 75 l 297 236 q 329 195 306 210 q 381 181 353 181 q 436 210 436 181 q 423 229 436 224 q 381 239 410 235 l 242 261 q 33 465 33 294 q 80 609 33 550 q 204 697 126 668 q 372 726 282 726 q 717 536 664 726 l 453 485 q 424 524 447 508 q 371 540 400 540 q 319 513 319 540 q 354 485 319 490 l 513 456 z "},"ţ":{"ha":597,"x_min":7,"x_max":590,"o":"m 590 31 q 460 -14 524 -3 l 410 -219 l 106 -219 l 253 0 q 92 261 92 61 l 92 476 l 7 476 l 7 706 l 92 706 l 119 931 l 390 931 l 390 706 l 556 706 l 556 476 l 390 476 l 390 299 q 408 247 390 261 q 465 232 428 232 q 540 249 511 232 l 590 31 z "},"Ť":{"ha":929,"x_min":28,"x_max":901,"o":"m 308 1013 l 143 1246 l 422 1246 l 465 1185 l 507 1246 l 786 1246 l 621 1013 l 308 1013 m 901 672 l 618 672 l 618 0 l 311 0 l 311 672 l 28 672 l 28 931 l 901 931 l 901 672 z "},"ť":{"ha":597,"x_min":7,"x_max":681,"o":"m 681 1039 l 615 761 l 424 761 l 424 1039 l 681 1039 m 465 232 q 540 249 511 232 l 590 31 q 381 -21 496 -21 q 165 56 238 -21 q 92 261 92 132 l 92 476 l 7 476 l 7 706 l 92 706 l 119 931 l 390 931 l 390 706 l 556 706 l 556 476 l 390 476 l 390 299 q 408 247 390 261 q 465 232 428 232 z "},"Ŧ":{"ha":929,"x_min":28,"x_max":901,"o":"m 618 672 l 618 542 l 756 542 l 756 311 l 618 311 l 618 0 l 311 0 l 311 311 l 175 311 l 175 542 l 311 542 l 311 672 l 28 672 l 28 931 l 901 931 l 901 672 l 618 672 z "},"ŧ":{"ha":597,"x_min":7,"x_max":590,"o":"m 590 31 q 381 -21 496 -21 q 165 56 238 -21 q 92 261 92 132 l 92 294 l 39 294 l 39 468 l 92 468 l 92 518 l 7 518 l 7 706 l 92 706 l 119 931 l 390 931 l 390 706 l 556 706 l 556 518 l 390 518 l 390 468 l 481 468 l 481 294 l 390 294 q 465 232 393 232 q 563 265 508 232 l 590 31 z "},"Ū":{"ha":996,"x_min":56,"x_max":940,"o":"m 746 1013 l 249 1013 l 249 1229 l 746 1229 l 746 1013 m 940 424 q 821 99 940 218 q 504 -21 701 -21 q 178 99 301 -21 q 56 424 56 217 l 56 931 l 364 931 l 364 424 q 401 296 364 340 q 504 251 439 251 q 597 296 561 251 q 632 424 632 339 l 632 931 l 940 931 l 940 424 z "},"ū":{"ha":864,"x_min":53,"x_max":815,"o":"m 682 788 l 185 788 l 185 1004 l 682 1004 l 682 788 m 815 0 l 544 0 l 517 76 q 310 -21 432 -21 q 121 57 189 -21 q 53 265 53 135 l 53 706 l 351 706 l 351 329 q 372 267 351 292 q 429 243 393 243 q 494 273 471 243 q 517 349 517 303 l 517 706 l 815 706 l 815 0 z "},"Ů":{"ha":996,"x_min":56,"x_max":940,"o":"m 497 978 q 358 1033 414 978 q 301 1167 301 1088 q 358 1303 301 1246 q 497 1357 415 1357 q 636 1303 579 1357 q 693 1167 693 1246 q 636 1033 693 1088 q 497 978 581 978 m 497 1221 q 458 1206 476 1221 q 442 1167 442 1189 q 458 1131 442 1146 q 497 1114 475 1114 q 536 1131 519 1114 q 553 1167 553 1146 q 536 1206 553 1189 q 497 1221 518 1221 m 940 424 q 821 99 940 218 q 504 -21 701 -21 q 178 99 301 -21 q 56 424 56 217 l 56 931 l 364 931 l 364 424 q 401 296 364 340 q 504 251 439 251 q 597 296 561 251 q 632 424 632 339 l 632 931 l 940 931 l 940 424 z "},"ů":{"ha":864,"x_min":53,"x_max":815,"o":"m 433 753 q 335 778 379 753 q 264 846 290 803 q 238 942 238 889 q 294 1078 238 1024 q 433 1132 350 1132 q 532 1107 488 1132 q 603 1039 576 1082 q 629 942 629 996 q 603 846 629 889 q 532 778 576 803 q 433 753 488 753 m 433 996 q 394 980 411 996 q 378 942 378 964 q 394 905 378 921 q 433 889 411 889 q 472 904 456 889 q 489 942 489 919 q 472 980 489 964 q 433 996 456 996 m 815 0 l 544 0 l 517 76 q 310 -21 432 -21 q 121 57 189 -21 q 53 265 53 135 l 53 706 l 351 706 l 351 329 q 372 267 351 292 q 429 243 393 243 q 494 273 471 243 q 517 349 517 303 l 517 706 l 815 706 l 815 0 z "},"Ű":{"ha":996,"x_min":56,"x_max":964,"o":"m 449 1013 l 208 1013 l 333 1246 l 631 1246 l 449 1013 m 528 1013 l 653 1246 l 964 1246 l 768 1013 l 528 1013 m 940 424 q 821 99 940 218 q 504 -21 701 -21 q 178 99 301 -21 q 56 424 56 217 l 56 931 l 364 931 l 364 424 q 401 296 364 340 q 504 251 439 251 q 597 296 561 251 q 632 424 632 339 l 632 931 l 940 931 l 940 424 z "},"ű":{"ha":864,"x_min":53,"x_max":900,"o":"m 385 788 l 144 788 l 269 1021 l 567 1021 l 385 788 m 464 788 l 589 1021 l 900 1021 l 704 788 l 464 788 m 815 706 l 815 0 l 544 0 l 517 76 q 310 -21 432 -21 q 121 57 189 -21 q 53 265 53 135 l 53 706 l 351 706 l 351 329 q 372 267 351 292 q 429 243 393 243 q 494 273 471 243 q 517 349 517 303 l 517 706 l 815 706 z "},"Ų":{"ha":996,"x_min":56,"x_max":940,"o":"m 800 76 q 704 -82 704 -6 q 744 -125 704 -125 q 817 -108 764 -125 l 853 -269 q 663 -318 749 -318 q 540 -275 588 -318 q 492 -165 492 -231 q 556 -18 492 -92 l 504 -21 q 178 96 301 -21 q 56 411 56 210 l 56 931 l 364 931 l 364 411 q 401 293 364 335 q 504 251 439 251 q 597 293 563 251 q 632 411 632 333 l 632 931 l 940 931 l 940 411 q 800 76 940 193 z "},"ų":{"ha":864,"x_min":53,"x_max":865,"o":"m 865 -269 q 714 -304 797 -304 q 594 -267 642 -304 q 547 -165 547 -229 q 631 0 547 -74 l 544 0 l 517 76 q 310 -21 432 -21 q 121 57 189 -21 q 53 265 53 135 l 53 706 l 351 706 l 351 329 q 372 267 351 292 q 429 243 393 243 q 494 273 471 243 q 517 349 517 303 l 517 706 l 815 706 l 815 0 l 807 -8 q 757 -61 771 -44 q 743 -93 743 -78 q 782 -125 743 -125 q 856 -112 813 -125 l 865 -269 z "},"Ŵ":{"ha":1383,"x_min":0,"x_max":1383,"o":"m 649 1013 l 369 1013 l 535 1246 l 847 1246 l 1013 1013 l 733 1013 l 692 1074 l 649 1013 m 1383 931 l 1129 0 l 799 0 l 692 469 l 585 0 l 254 0 l 0 931 l 311 931 l 442 456 l 547 931 l 836 931 l 942 456 l 1072 931 l 1383 931 z "},"ŵ":{"ha":1126,"x_min":0,"x_max":1126,"o":"m 521 788 l 242 788 l 407 1021 l 719 1021 l 885 788 l 606 788 l 564 849 l 521 788 m 1126 706 l 914 0 l 665 0 l 564 315 l 461 0 l 213 0 l 0 706 l 292 706 l 365 433 l 471 706 l 656 706 l 761 433 l 835 706 l 1126 706 z "},"Ŷ":{"ha":1022,"x_min":0,"x_max":1022,"o":"m 468 1013 l 189 1013 l 354 1246 l 667 1246 l 832 1013 l 553 1013 l 511 1074 l 468 1013 m 1022 931 l 665 279 l 665 0 l 343 0 l 343 279 l 0 931 l 335 931 l 513 583 l 688 931 l 1022 931 z "},"ŷ":{"ha":894,"x_min":0,"x_max":894,"o":"m 413 788 l 133 788 l 299 1021 l 611 1021 l 776 788 l 497 788 l 456 849 l 413 788 m 894 706 l 447 -333 l 138 -333 l 293 26 l 0 706 l 310 706 l 442 372 l 585 706 l 894 706 z "},"Ÿ":{"ha":1022,"x_min":0,"x_max":1022,"o":"m 338 979 q 229 1021 271 979 q 186 1128 186 1063 q 229 1232 186 1189 q 338 1275 272 1275 q 447 1232 404 1275 q 490 1128 490 1189 q 447 1021 490 1063 q 338 979 404 979 m 685 979 q 576 1021 618 979 q 533 1128 533 1063 q 576 1232 533 1189 q 685 1275 619 1275 q 794 1232 751 1275 q 838 1128 838 1189 q 794 1021 838 1063 q 685 979 751 979 m 1022 931 l 665 279 l 665 0 l 343 0 l 343 279 l 0 931 l 335 931 l 513 583 l 688 931 l 1022 931 z "},"Ź":{"ha":908,"x_min":42,"x_max":869,"o":"m 590 1013 l 308 1013 l 419 1246 l 781 1246 l 590 1013 m 869 257 l 869 0 l 42 0 l 42 199 l 454 674 l 53 674 l 53 931 l 853 931 l 853 692 l 488 257 l 869 257 z "},"ź":{"ha":789,"x_min":42,"x_max":747,"o":"m 531 788 l 249 788 l 360 1021 l 721 1021 l 531 788 m 747 229 l 747 0 l 42 0 l 42 190 l 336 476 l 49 476 l 49 706 l 742 706 l 742 511 l 450 229 l 747 229 z "},"Ż":{"ha":908,"x_min":42,"x_max":869,"o":"m 453 986 q 339 1031 383 986 q 294 1142 294 1075 q 340 1251 294 1206 q 453 1297 385 1297 q 567 1251 521 1297 q 613 1142 613 1206 q 568 1031 613 1075 q 453 986 521 986 m 869 257 l 869 0 l 42 0 l 42 199 l 454 674 l 53 674 l 53 931 l 853 931 l 853 692 l 488 257 l 869 257 z "},"ż":{"ha":789,"x_min":42,"x_max":747,"o":"m 393 761 q 279 806 324 761 q 235 917 235 850 q 281 1026 235 981 q 393 1072 324 1072 q 507 1026 461 1072 q 553 917 553 981 q 508 806 553 850 q 393 761 461 761 m 747 229 l 747 0 l 42 0 l 42 190 l 336 476 l 49 476 l 49 706 l 742 706 l 742 511 l 450 229 l 747 229 z "},"Ž":{"ha":908,"x_min":42,"x_max":869,"o":"m 297 1013 l 132 1246 l 411 1246 l 454 1185 l 496 1246 l 775 1246 l 610 1013 l 297 1013 m 869 257 l 869 0 l 42 0 l 42 199 l 454 674 l 53 674 l 53 931 l 853 931 l 853 692 l 488 257 l 869 257 z "},"ž":{"ha":789,"x_min":42,"x_max":747,"o":"m 238 788 l 72 1021 l 351 1021 l 394 960 l 436 1021 l 715 1021 l 550 788 l 238 788 m 747 229 l 747 0 l 42 0 l 42 190 l 336 476 l 49 476 l 49 706 l 742 706 l 742 511 l 450 229 l 747 229 z "},"ƒ":{"ha":824,"x_min":-28,"x_max":810,"o":"m 647 706 q 596 689 617 706 q 569 640 575 671 l 556 567 l 700 567 l 700 338 l 514 338 l 461 43 q 354 -156 438 -82 q 149 -229 269 -229 q 114 -228 125 -229 l 83 -224 q 57 -217 78 -222 l 33 -208 l 14 -199 l -3 -189 l -17 -179 l -28 -172 l 51 38 q 117 19 96 19 q 167 69 157 19 l 215 338 l 106 338 l 106 567 l 257 567 l 275 667 q 393 874 297 796 q 618 951 488 951 q 810 904 725 951 l 722 685 q 647 706 678 706 z "},"Ǽ":{"ha":1467,"x_min":0,"x_max":1443,"o":"m 1056 1013 l 774 1013 l 885 1246 l 1246 1246 l 1056 1013 m 1443 251 l 1429 0 l 671 0 l 671 113 l 418 113 l 363 0 l 0 0 l 539 931 l 1422 931 l 1422 679 l 978 679 l 978 576 l 1413 576 l 1413 354 l 978 354 l 978 251 l 1443 251 m 671 361 l 671 621 l 542 361 l 671 361 z "},"ǽ":{"ha":1229,"x_min":14,"x_max":1208,"o":"m 751 788 l 469 788 l 581 1021 l 942 1021 l 751 788 m 732 282 q 836 200 757 200 q 894 213 872 200 q 932 260 917 222 l 1188 207 q 1064 43 1160 104 q 836 -21 967 -21 q 599 50 706 -21 q 329 -21 497 -21 q 96 38 178 -21 q 14 206 14 94 q 325 418 14 418 l 467 418 l 467 460 q 450 503 467 486 q 408 518 432 518 q 344 460 356 518 l 67 517 q 174 668 85 610 q 408 726 261 726 q 629 674 543 726 q 836 726 719 726 q 1107 624 1004 726 q 1208 325 1208 521 l 1208 282 l 732 282 m 924 418 q 832 501 906 501 q 732 418 756 501 l 924 418 m 397 276 q 321 228 321 276 q 339 190 321 204 q 386 176 357 176 q 442 196 418 176 q 465 247 465 215 l 465 276 l 397 276 z "},"Ș":{"ha":911,"x_min":24,"x_max":885,"o":"m 476 951 q 755 883 644 951 q 885 679 865 815 l 586 619 q 469 722 565 722 q 417 708 438 722 q 396 668 397 694 q 431 625 396 635 l 611 578 q 810 481 743 544 q 878 310 878 417 q 820 130 878 204 q 667 17 763 56 q 457 -21 571 -21 q 250 13 344 -21 q 95 114 156 47 q 24 272 35 181 l 336 329 q 465 219 361 219 q 549 275 549 219 q 508 315 549 304 l 319 365 q 133 457 197 394 q 68 625 68 519 q 123 805 68 732 q 270 915 178 878 q 476 951 363 951 m 261 -299 l 326 -62 l 606 -62 l 463 -299 l 261 -299 z "},"ș":{"ha":747,"x_min":15,"x_max":722,"o":"m 297 236 q 329 195 306 210 q 381 181 353 181 q 436 210 436 181 q 423 229 436 224 q 381 239 410 235 l 242 261 q 33 465 33 294 q 80 609 33 550 q 204 697 126 668 q 372 726 282 726 q 717 536 664 726 l 453 485 q 424 524 447 508 q 371 540 400 540 q 319 513 319 540 q 354 485 319 490 l 513 456 q 722 231 722 418 q 674 90 722 146 q 546 6 625 33 q 372 -21 467 -21 q 135 27 232 -21 q 15 181 39 75 l 297 236 m 185 -299 l 250 -62 l 529 -62 l 386 -299 l 185 -299 z "},"Ț":{"ha":929,"x_min":28,"x_max":901,"o":"m 901 672 l 618 672 l 618 0 l 311 0 l 311 672 l 28 672 l 28 931 l 901 931 l 901 672 m 329 -62 l 608 -62 l 465 -299 l 264 -299 l 329 -62 z "},"ț":{"ha":597,"x_min":7,"x_max":590,"o":"m 381 -21 q 165 56 238 -21 q 92 261 92 132 l 92 476 l 7 476 l 7 706 l 92 706 l 119 931 l 390 931 l 390 706 l 556 706 l 556 476 l 390 476 l 390 299 q 408 247 390 261 q 465 232 428 232 q 540 249 511 232 l 590 31 q 381 -21 496 -21 m 222 -60 l 501 -60 l 358 -296 l 157 -296 l 222 -60 z "},"ˆ":{"ha":833,"x_min":96,"x_max":739,"o":"m 460 788 l 418 849 l 375 788 l 96 788 l 261 1021 l 574 1021 l 739 788 l 460 788 z "},"ˇ":{"ha":833,"x_min":96,"x_max":739,"o":"m 739 1021 l 574 788 l 261 788 l 96 1021 l 375 1021 l 418 960 l 460 1021 l 739 1021 z "},"˘":{"ha":833,"x_min":140,"x_max":693,"o":"m 417 767 q 218 835 294 767 q 140 1011 140 904 l 361 1011 q 376 978 361 993 q 417 963 392 963 q 460 978 444 963 q 474 1011 474 992 l 693 1011 q 617 835 693 903 q 417 767 540 767 z "},"˙":{"ha":833,"x_min":258,"x_max":576,"o":"m 417 1072 q 531 1026 485 1072 q 576 917 576 981 q 532 806 576 850 q 417 761 485 761 q 303 806 347 761 q 258 917 258 850 q 304 1026 258 981 q 417 1072 349 1072 z "},"˚":{"ha":833,"x_min":221,"x_max":613,"o":"m 613 942 q 556 808 613 863 q 417 753 500 753 q 278 808 333 753 q 221 942 221 863 q 278 1078 221 1021 q 417 1132 335 1132 q 556 1078 500 1132 q 613 942 613 1021 m 472 942 q 456 981 472 964 q 417 996 438 996 q 378 981 396 996 q 361 942 361 964 q 378 906 361 921 q 417 889 394 889 q 456 906 439 889 q 472 942 472 921 z "},"˛":{"ha":833,"x_min":182,"x_max":500,"o":"m 442 -8 l 404 -47 q 386 -71 392 -60 q 378 -93 378 -83 q 417 -125 378 -125 q 490 -112 446 -125 l 500 -269 q 349 -304 432 -304 q 229 -267 275 -304 q 182 -165 182 -228 q 210 -69 182 -118 q 283 14 236 -21 l 450 0 l 442 -8 z "},"˜":{"ha":833,"x_min":149,"x_max":707,"o":"m 149 788 q 200 983 149 910 q 331 1058 250 1058 q 426 1035 375 1058 q 496 1010 475 1010 q 526 1018 515 1010 q 547 1051 536 1026 l 707 1051 q 657 856 707 931 q 524 781 606 781 q 431 803 476 781 q 360 825 385 825 q 329 818 339 825 q 308 788 319 813 l 149 788 z "},"˝":{"ha":833,"x_min":31,"x_max":786,"o":"m 271 788 l 31 788 l 156 1021 l 453 1021 l 271 788 m 590 788 l 350 788 l 475 1021 l 786 1021 l 590 788 z "},"̦":{"ha":0,"x_min":215,"x_max":560,"o":"m 215 -299 l 281 -62 l 560 -62 l 417 -299 l 215 -299 z "},"Ẁ":{"ha":1383,"x_min":0,"x_max":1383,"o":"m 564 1013 l 374 1246 l 735 1246 l 846 1013 l 564 1013 m 1383 931 l 1129 0 l 799 0 l 692 469 l 585 0 l 254 0 l 0 931 l 311 931 l 442 456 l 547 931 l 836 931 l 942 456 l 1072 931 l 1383 931 z "},"ẁ":{"ha":1126,"x_min":0,"x_max":1126,"o":"m 436 788 l 246 1021 l 607 1021 l 718 788 l 436 788 m 1126 706 l 914 0 l 665 0 l 564 315 l 461 0 l 213 0 l 0 706 l 292 706 l 365 433 l 471 706 l 656 706 l 761 433 l 835 706 l 1126 706 z "},"Ẃ":{"ha":1383,"x_min":0,"x_max":1383,"o":"m 828 1013 l 546 1013 l 657 1246 l 1018 1246 l 828 1013 m 1383 931 l 1129 0 l 799 0 l 692 469 l 585 0 l 254 0 l 0 931 l 311 931 l 442 456 l 547 931 l 836 931 l 942 456 l 1072 931 l 1383 931 z "},"ẃ":{"ha":1126,"x_min":0,"x_max":1126,"o":"m 700 788 l 418 788 l 529 1021 l 890 1021 l 700 788 m 1126 706 l 914 0 l 665 0 l 564 315 l 461 0 l 213 0 l 0 706 l 292 706 l 365 433 l 471 706 l 656 706 l 761 433 l 835 706 l 1126 706 z "},"Ẅ":{"ha":1383,"x_min":0,"x_max":1383,"o":"m 518 979 q 410 1021 451 979 q 367 1128 367 1063 q 410 1232 367 1189 q 518 1275 453 1275 q 628 1232 585 1275 q 671 1128 671 1189 q 628 1021 671 1063 q 518 979 585 979 m 865 979 q 757 1021 799 979 q 714 1128 714 1063 q 757 1232 714 1189 q 865 1275 800 1275 q 975 1232 932 1275 q 1018 1128 1018 1189 q 975 1021 1018 1063 q 865 979 932 979 m 1383 931 l 1129 0 l 799 0 l 692 469 l 585 0 l 254 0 l 0 931 l 311 931 l 442 456 l 547 931 l 836 931 l 942 456 l 1072 931 l 1383 931 z "},"ẅ":{"ha":1126,"x_min":0,"x_max":1126,"o":"m 390 754 q 282 796 324 754 q 239 903 239 838 q 282 1007 239 964 q 390 1050 325 1050 q 500 1007 457 1050 q 543 903 543 964 q 500 796 543 838 q 390 754 457 754 m 738 754 q 629 796 671 754 q 586 903 586 838 q 629 1007 586 964 q 738 1050 672 1050 q 847 1007 804 1050 q 890 903 890 964 q 847 796 890 838 q 738 754 804 754 m 1126 706 l 914 0 l 665 0 l 564 315 l 461 0 l 213 0 l 0 706 l 292 706 l 365 433 l 471 706 l 656 706 l 761 433 l 835 706 l 1126 706 z "},"Ỳ":{"ha":1022,"x_min":0,"x_max":1022,"o":"m 383 1013 l 193 1246 l 554 1246 l 665 1013 l 383 1013 m 1022 931 l 665 279 l 665 0 l 343 0 l 343 279 l 0 931 l 335 931 l 513 583 l 688 931 l 1022 931 z "},"ỳ":{"ha":894,"x_min":0,"x_max":894,"o":"m 328 788 l 138 1021 l 499 1021 l 610 788 l 328 788 m 894 706 l 447 -333 l 138 -333 l 293 26 l 0 706 l 310 706 l 442 372 l 585 706 l 894 706 z "},"–":{"ha":861,"x_min":83,"x_max":778,"o":"m 778 268 l 83 268 l 83 504 l 778 504 l 778 268 z "},"—":{"ha":1444,"x_min":83,"x_max":1361,"o":"m 1361 268 l 83 268 l 83 504 l 1361 504 l 1361 268 z "},"‘":{"ha":464,"x_min":35,"x_max":429,"o":"m 200 931 l 429 931 l 350 475 l 35 475 l 35 482 l 200 931 z "},"’":{"ha":464,"x_min":35,"x_max":429,"o":"m 264 475 l 35 475 l 114 931 l 429 931 l 429 924 l 264 475 z "},"‚":{"ha":464,"x_min":35,"x_max":429,"o":"m 264 -183 l 35 -183 l 114 272 l 429 272 l 429 265 l 264 -183 z "},"“":{"ha":825,"x_min":35,"x_max":790,"o":"m 200 931 l 429 931 l 350 475 l 35 475 l 35 482 l 200 931 m 561 931 l 790 931 l 711 475 l 396 475 l 396 482 l 561 931 z "},"”":{"ha":825,"x_min":35,"x_max":790,"o":"m 264 475 l 35 475 l 114 931 l 429 931 l 429 924 l 264 475 m 625 475 l 396 475 l 475 931 l 790 931 l 790 924 l 625 475 z "},"„":{"ha":825,"x_min":35,"x_max":790,"o":"m 264 -183 l 35 -183 l 114 272 l 429 272 l 429 265 l 264 -183 m 625 -183 l 396 -183 l 475 272 l 790 272 l 790 265 l 625 -183 z "},"†":{"ha":542,"x_min":35,"x_max":507,"o":"m 507 903 l 507 749 l 354 749 l 354 401 l 188 401 l 188 749 l 35 749 l 35 903 l 188 903 l 188 1028 l 354 1028 l 354 903 l 507 903 z "},"‡":{"ha":542,"x_min":35,"x_max":507,"o":"m 354 749 l 354 681 l 507 681 l 507 526 l 354 526 l 354 401 l 188 401 l 188 526 l 35 526 l 35 681 l 188 681 l 188 749 l 35 749 l 35 903 l 188 903 l 188 1028 l 354 1028 l 354 903 l 507 903 l 507 749 l 354 749 z "},"•":{"ha":556,"x_min":22,"x_max":535,"o":"m 278 626 q 461 550 389 626 q 535 368 535 472 q 463 186 535 258 q 278 113 389 113 q 94 186 168 113 q 22 368 22 258 q 96 550 22 472 q 278 626 168 626 z "},"…":{"ha":1171,"x_min":21,"x_max":1150,"o":"m 182 315 q 299 268 251 315 q 344 153 344 221 q 299 38 344 83 q 182 -8 253 -8 q 67 38 111 -8 q 21 153 21 83 q 67 268 21 221 q 182 315 113 315 m 585 315 q 701 268 654 315 q 747 153 747 221 q 701 38 747 83 q 585 -8 656 -8 q 469 38 514 -8 q 424 153 424 83 q 469 268 424 221 q 585 315 515 315 m 988 315 q 1104 268 1057 315 q 1150 153 1150 219 q 1104 38 1150 83 q 988 -8 1058 -8 q 872 38 917 -8 q 826 153 826 83 q 872 268 826 221 q 988 315 918 315 z "},"‰":{"ha":1872,"x_min":56,"x_max":1817,"o":"m 314 951 q 496 883 422 951 q 569 703 569 814 q 496 525 569 594 q 314 456 419 456 q 132 525 208 456 q 56 703 56 593 q 132 883 56 815 q 314 951 206 951 m 247 0 l 901 931 l 1050 931 l 396 0 l 247 0 m 314 790 q 254 767 281 790 q 229 703 229 744 q 256 642 229 664 q 314 617 281 617 q 371 642 346 617 q 396 703 396 665 q 371 767 396 744 q 314 790 344 790 m 978 475 q 1160 407 1086 475 q 1233 226 1233 338 q 1160 49 1233 118 q 978 -21 1083 -21 q 796 49 872 -21 q 719 226 719 117 q 796 407 719 339 q 978 475 869 475 m 1561 475 q 1743 407 1669 475 q 1817 226 1817 338 q 1743 49 1817 118 q 1561 -21 1667 -21 q 1379 49 1456 -21 q 1303 226 1303 117 q 1379 407 1303 339 q 1561 475 1453 475 m 978 314 q 918 290 944 314 q 893 226 893 268 q 919 165 893 188 q 978 140 944 140 q 1035 165 1010 140 q 1060 226 1060 189 q 1035 290 1060 268 q 978 314 1008 314 m 1561 314 q 1501 290 1528 314 q 1476 226 1476 268 q 1503 165 1476 188 q 1561 140 1528 140 q 1618 165 1593 140 q 1643 226 1643 189 q 1618 290 1643 268 q 1561 314 1592 314 z "},"‹":{"ha":461,"x_min":35,"x_max":426,"o":"m 35 364 l 163 611 l 426 611 l 299 364 l 426 117 l 163 117 l 35 364 z "},"›":{"ha":461,"x_min":35,"x_max":426,"o":"m 35 117 l 163 364 l 35 611 l 299 611 l 426 364 l 299 117 l 35 117 z "},"⁄":{"ha":358,"x_min":-222,"x_max":581,"o":"m -222 0 l 432 931 l 581 931 l -74 0 l -222 0 z "},"€":{"ha":1007,"x_min":35,"x_max":972,"o":"m 972 367 q 842 88 958 197 q 549 -21 725 -21 q 288 65 397 -21 q 139 301 179 151 l 35 301 l 35 435 l 118 435 l 118 496 l 35 496 l 35 628 l 138 628 q 286 865 176 776 q 549 951 396 951 q 836 846 722 951 q 971 571 947 740 l 681 517 q 549 701 654 701 q 447 628 481 701 l 607 628 l 583 496 l 419 496 l 418 465 q 419 435 418 442 l 576 435 l 553 301 l 447 301 q 549 229 482 229 q 678 422 656 229 l 972 367 z "},"№":{"ha":1660,"x_min":49,"x_max":1611,"o":"m 1339 440 q 1147 511 1226 440 q 1068 692 1068 582 q 1147 874 1068 803 q 1339 944 1226 944 q 1532 874 1453 944 q 1611 692 1611 803 q 1532 511 1611 582 q 1339 440 1453 440 m 683 931 l 990 931 l 990 0 l 739 0 l 356 419 l 356 0 l 49 0 l 49 931 l 300 931 l 683 492 l 683 931 m 1339 767 q 1290 746 1308 767 q 1271 692 1271 722 q 1290 640 1271 663 q 1339 618 1308 618 q 1389 640 1371 618 q 1408 692 1408 663 q 1389 746 1408 722 q 1339 767 1369 767 m 1074 392 l 1607 392 l 1607 188 l 1074 188 l 1074 392 z "},"℗":{"ha":1051,"x_min":39,"x_max":1013,"o":"m 526 951 q 871 813 728 951 q 1013 464 1013 672 q 871 117 1013 254 q 526 -21 729 -21 q 182 117 324 -21 q 39 464 39 254 q 182 813 39 674 q 526 951 322 951 m 526 58 q 810 174 692 58 q 926 464 926 289 q 810 757 926 639 q 526 874 692 874 q 243 757 360 874 q 125 464 125 640 q 243 174 125 288 q 526 58 361 58 m 588 718 q 733 669 681 718 q 785 543 785 619 q 726 410 785 458 q 571 360 668 360 l 507 360 l 507 214 l 336 214 l 336 718 l 588 718 m 564 489 q 619 538 619 489 q 564 582 619 582 l 507 582 l 507 489 l 564 489 z "},"™":{"ha":1017,"x_min":50,"x_max":953,"o":"m 436 801 l 319 801 l 319 531 l 167 531 l 167 801 l 50 801 l 50 931 l 436 931 l 436 801 m 953 531 l 806 531 l 806 700 l 742 535 l 682 535 l 618 700 l 618 531 l 471 531 l 471 931 l 629 931 l 711 726 l 793 931 l 953 931 l 953 531 z "},"←":{"ha":1010,"x_min":14,"x_max":954,"o":"m 954 332 l 467 332 l 644 153 l 478 -14 l 14 450 l 478 914 l 644 747 l 467 568 l 954 568 l 954 332 z "},"↑":{"ha":1039,"x_min":56,"x_max":983,"o":"m 817 310 l 638 488 l 638 0 l 401 0 l 401 488 l 222 310 l 56 476 l 519 940 l 983 476 l 817 310 z "},"→":{"ha":1010,"x_min":56,"x_max":996,"o":"m 996 450 l 532 -14 l 365 153 l 543 332 l 56 332 l 56 568 l 543 568 l 365 747 l 532 914 l 996 450 z "},"↓":{"ha":1039,"x_min":56,"x_max":983,"o":"m 983 454 l 519 -10 l 56 454 l 222 621 l 401 443 l 401 931 l 638 931 l 638 443 l 817 621 l 983 454 z "},"↖":{"ha":1042,"x_min":42,"x_max":986,"o":"m 800 -15 l 282 504 l 282 247 l 42 247 l 42 931 l 725 931 l 724 692 l 465 692 l 986 169 l 800 -15 z "},"↗":{"ha":1039,"x_min":53,"x_max":997,"o":"m 997 931 l 997 247 l 757 247 l 757 504 l 239 -15 l 53 169 l 574 692 l 315 692 l 314 931 l 997 931 z "},"↘":{"ha":1043,"x_min":57,"x_max":1001,"o":"m 1001 683 l 1001 0 l 318 0 l 319 239 l 578 239 l 57 761 l 243 946 l 761 426 l 761 683 l 1001 683 z "},"↙":{"ha":1043,"x_min":42,"x_max":986,"o":"m 724 239 l 725 0 l 42 0 l 42 683 l 282 683 l 282 426 l 800 946 l 986 761 l 465 239 l 724 239 z "},"−":{"ha":778,"x_min":42,"x_max":736,"o":"m 736 306 l 42 306 l 42 528 l 736 528 l 736 306 z "},"≈":{"ha":772,"x_min":42,"x_max":731,"o":"m 731 449 q 574 415 658 415 q 393 454 493 415 q 218 492 292 492 q 42 451 110 492 l 42 646 q 218 693 106 693 q 397 656 292 693 q 576 617 501 617 q 731 650 667 617 l 731 449 m 731 199 q 574 165 658 165 q 393 204 493 165 q 218 242 292 242 q 42 201 110 242 l 42 396 q 218 443 106 443 q 397 406 290 443 q 576 367 501 367 q 731 400 667 367 l 731 199 z "},"≠":{"ha":778,"x_min":42,"x_max":736,"o":"m 508 456 l 472 389 l 736 389 l 736 181 l 360 181 l 289 49 l 100 49 l 171 181 l 42 181 l 42 389 l 283 389 l 319 456 l 42 456 l 42 664 l 432 664 l 490 771 l 679 771 l 621 664 l 736 664 l 736 456 l 508 456 z "},"≤":{"ha":714,"x_min":42,"x_max":658,"o":"m 658 314 l 43 451 l 43 721 l 658 860 l 658 638 l 296 586 l 658 532 l 658 314 m 658 285 l 658 63 l 42 63 l 42 285 l 658 285 z "},"≥":{"ha":714,"x_min":56,"x_max":672,"o":"m 418 586 l 56 638 l 56 860 l 671 721 l 671 451 l 56 314 l 56 532 l 418 586 m 672 63 l 56 63 l 56 285 l 672 285 l 672 63 z "},"ﬁ":{"ha":942,"x_min":7,"x_max":893,"o":"m 879 0 l 581 0 l 581 476 l 393 476 l 393 0 l 94 0 l 94 476 l 7 476 l 7 706 l 94 706 l 94 804 q 176 1007 94 929 q 389 1083 257 1083 q 522 1063 456 1083 l 483 835 l 458 838 q 411 821 431 838 q 393 778 393 804 l 393 706 l 879 706 l 879 0 m 729 751 q 613 797 658 751 q 567 910 567 842 q 613 1022 567 975 q 729 1068 658 1068 q 847 1022 800 1068 q 893 910 893 975 q 847 797 893 842 q 729 751 800 751 z "},"ﬂ":{"ha":1043,"x_min":7,"x_max":1043,"o":"m 458 838 q 411 821 431 838 q 393 778 393 804 l 393 706 l 546 706 l 546 476 l 393 476 l 393 0 l 94 0 l 94 476 l 7 476 l 7 706 l 94 706 l 94 804 q 176 1007 94 929 q 389 1083 257 1083 q 554 1051 471 1083 l 497 832 q 458 838 481 838 m 890 274 q 902 240 890 253 q 933 228 914 228 q 985 236 950 229 q 1043 251 1019 243 l 1043 35 q 948 -8 988 4 q 853 -21 908 -21 q 663 53 733 -21 q 592 247 592 126 l 592 1069 l 890 1069 l 890 274 z "}}}
